<svg xmlns="http://www.w3.org/2000/svg" width="227.39" height="140.948" viewBox="0 0 227.39 140.948">
    <defs>
        <style>
            .cls-1{fill:#eaeaea}.cls-2{fill:#f9e235}.cls-3{fill:#ebd619}.cls-4{fill:#f7b58e}.cls-5{fill:#e8b18b}.cls-6{fill:#f5bc8e}.cls-7{fill:#010202}.cls-8{fill:#4e4d4d}.cls-9{fill:#ffd147}.cls-10{fill:#f39f85}.cls-11{fill:#efefef}.cls-12{fill:#dbdbdb}.cls-13{fill:#eb9d68}.cls-14{fill:#2d2d2d}.cls-15{fill:#053c5e}
        </style>
    </defs>
    <g id="Group_676" data-name="Group 676" transform="translate(-88.061 -363.521)">
        <path id="Path_3097" d="M116.609 562.265s-47.676.049-19.8 7.725 37.068 3.588 30.333 10.47 36.029-2.1 73.457-.4 21.884 3.2 63.21 1.232 40.28-5.757 32.517-7.345-1.738-7.692 8.859-8.322 30.06-11.586-46.59-7.3-141.986 3.94-141.986 3.94z" class="cls-1" data-name="Path 3097" transform="translate(0 -78.623)"/>
        <g id="Group_675" data-name="Group 675" transform="translate(109.875 363.521)">
            <g id="Group_631" data-name="Group 631" transform="translate(140.198 10.869)">
                <path id="Path_3098" d="M379.706 381.808l9.73 11.166 14.4 1.026-7.25 12.887 3.111 13.828-14.134-2.73-12.552 7.048-1.409-14.1-10.945-9.943 13.34-5.515z" class="cls-2" data-name="Path 3098" transform="translate(-360.655 -381.808)"/>
                <path id="Path_3099" d="M416.966 394.181l-14.4-1.027-9.542-10.9 5.844 35.973 13.957 2.67-3.111-13.828z" class="cls-3" data-name="Path 3099" transform="translate(-373.787 -381.988)"/>
            </g>
            <g id="Group_638" data-name="Group 638" transform="translate(158.521 47.469)">
                <g id="Group_633" data-name="Group 633" transform="translate(13.354)">
                    <path id="Path_3100" d="M414.764 450.28l-.178 12.712 3.45-.919-1.947-12.393z" class="cls-4" data-name="Path 3100" transform="translate(-414.21 -445.943)"/>
                    <g id="Group_632" data-name="Group 632">
                        <path id="Path_3101" d="M416.361 444.6a1.846 1.846 0 0 1-.083 1.317l-.449 1.667-.316.16-1.011.365c.158-.319.064.026.064.026l-.367-2.569s-1.08-1.51 1.3-2.153a.567.567 0 0 1 .617.2 1.448 1.448 0 0 1 .245.987z" class="cls-4" data-name="Path 3101" transform="translate(-413.954 -443.391)"/>
                    </g>
                    <path id="Path_3102" d="M416.505 480.92a74.656 74.656 0 0 1-1.919-10l3.328-1.693 1.5 4.392z" class="cls-4" data-name="Path 3102" transform="translate(-414.21 -453.873)"/>
                </g>
                <path id="Path_3103" d="M423.685 557.479l-1.447.251c-.3-1.795-4.8-10.3-5.165-14.722a99.876 99.876 0 0 0-1.546-10.368l4.84-1.439s1.226 0-.121 10c3.027 3.972 3.838 12.986 3.439 16.278z" class="cls-5" data-name="Path 3103" transform="translate(-401.238 -479.013)"/>
                <path id="Path_3104" d="M418.18 525.082s-1.137 6.84-2.718 14.155c1.652 4.417-.865 16.744-.912 16.7-.19-.178-1.059.893-1.059.893s-1.836-10.879-2.242-15.784-.507-10.888-.507-10.888z" class="cls-6" data-name="Path 3104" transform="translate(-399.297 -476.53)"/>
                <path id="Path_3105" d="M413.425 575.839a1.614 1.614 0 0 1 .562 1.329c-.126.745-.3 2.489-.3 2.489h-.708l.021-1.627c0-.106-1.519 1.627-1.776 1.627h-3.748s-.249-1.1 1.952-1.45a8.018 8.018 0 0 0 3.997-2.368z" class="cls-7" data-name="Path 3105" transform="translate(-397.966 -497.121)"/>
                <g id="Group_634" data-name="Group 634" transform="translate(16.992 76.889)">
                    <path id="Path_3106" d="M425.665 573.351l.1 1.552a1.452 1.452 0 0 1-.256.919 5.833 5.833 0 0 1-1.127 1.171c1.087.349 2.075-.87 2.594-1.679a1.934 1.934 0 0 0 .281-1.331l-.183-1.221z" class="cls-5" data-name="Path 3106" transform="translate(-421.822 -572.762)"/>
                    <path id="Path_3107" d="M425.53 575.189s.956.086 1.115.813.61 2.2.61 2.2l-.521.415-.734-1.46a21.748 21.748 0 0 1-1.832 2.237h-4.091s0-1.354 2.56-1.416c2.358-.057 2.893-2.789 2.893-2.789z" class="cls-7" data-name="Path 3107" transform="translate(-420.075 -573.747)"/>
                </g>
                <g id="Group_636" data-name="Group 636" transform="translate(0 1.481)">
                    <path id="Path_3108" d="M394.3 452.739l4.544 11.874 2.864-2.131-6.4-10.789z" class="cls-4" data-name="Path 3108" transform="translate(-392.628 -448.239)"/>
                    <g id="Group_635" data-name="Group 635">
                        <path id="Path_3109" d="M393.723 446.791a1.847 1.847 0 0 1 .411 1.254l.2 1.714-.234.266-.8.713c.028-.355.068 0 .068 0l-1.293-2.25s-1.564-1 .408-2.481a.567.567 0 0 1 .648-.042 1.449 1.449 0 0 1 .592.826z" class="cls-4" data-name="Path 3109" transform="translate(-391.484 -445.882)"/>
                    </g>
                </g>
                <path id="Path_3110" d="M415.165 475.979h2.928l-1.169-3.442-2.29 1.407z" class="cls-4" data-name="Path 3110" transform="translate(-400.876 -455.215)"/>
                <path id="Path_3111" d="M406.129 478.128c.015-.086.034-.159.052-.239a44.264 44.264 0 0 1-4.232-6.373l2.465-2.805 4.472 5.32 1.643.007a3.293 3.293 0 0 1 4.16.535c.708.73 1.18 2.712.707 4.807-1.305 5.775-.284 8.829-.284 8.829l-7.555 2.817s-.172-5.022-.29-8.544v-.012a3.926 3.926 0 0 0-.613-1.927 3.442 3.442 0 0 1-.525-2.415z" class="cls-8" data-name="Path 3111" transform="translate(-395.73 -453.663)"/>
                <g id="Group_637" data-name="Group 637" transform="translate(11.538 11.137)">
                    <path id="Path_3112" d="M412.62 462.129l4.8 1.681-.473 3.584c-.007.051-.02.1-.03.15-.092.017-.185.033-.276.056l-.045.013-.043.009a3.286 3.286 0 0 0-2.245 2.247 5.675 5.675 0 0 1-2.079-.027 2.082 2.082 0 0 1-1.091-.471c-1.012-2.21 1.482-7.242 1.482-7.242z" class="cls-4" data-name="Path 3112" transform="translate(-410.897 -462.129)"/>
                </g>
                <path id="Path_3113" d="M413.288 464.37c1.293.632.988 7.295 1.211 11.832a5.157 5.157 0 0 0 4.366 4.823c1.712.273 3.59.323 4.724-.322-.749-.613-4.789-6.557-3.5-14.427.17-1.036.191-3.92-1.554-5.486-1.938-1.739-5.936.53-5.936.53s-1.087 2.18.689 3.05z" class="cls-7" data-name="Path 3113" transform="translate(-399.917 -450.183)"/>
                <path id="Path_3114" d="M410.44 501.222a56.08 56.08 0 0 0-1.006 8.165c0 1.674.41 12.214.41 12.214s7.178.519 8.572.519c.346-8.637 2.315-8.9 2.315-12.932a11.488 11.488 0 0 0-1.587-4.991 7.3 7.3 0 0 1-1-2.8l-.047-.163z" class="cls-7" data-name="Path 3114" transform="translate(-398.766 -466.851)"/>
                <circle id="Ellipse_171" cx=".151" cy=".151" r=".151" data-name="Ellipse 171" transform="translate(12.306 14.947)"/>
            </g>
            <g id="Group_650" data-name="Group 650" transform="translate(42.308 37.891)">
                <g id="Group_639" data-name="Group 639" transform="translate(3.52 87.256)">
                    <path id="Path_3116" d="M204.536 577.25s.623.862 3.558 1.609c.646.165 1.343.277 1.343 1.343h-2.9l-2.962-.512v.512h-1.6s-.446-2.616.489-2.951z" class="cls-7" data-name="Path 3116" transform="translate(-201.872 -575.371)"/>
                    <path id="Path_3117" d="M205.095 574.088l-.152 1.879a1.809 1.809 0 0 1-1.96.066l-.11-.066v-1.879z" class="cls-5" data-name="Path 3117" transform="translate(-202.278 -574.088)"/>
                </g>
                <g id="Group_640" data-name="Group 640" transform="translate(13.967 87.256)">
                    <path id="Path_3118" d="M222.114 577.25s.623.862 3.557 1.609c.646.165 1.343.277 1.343 1.343h-2.9l-2.962-.512v.512h-1.6s-.445-2.616.489-2.951z" class="cls-8" data-name="Path 3118" transform="translate(-219.45 -575.371)"/>
                    <path id="Path_3119" d="M222.673 574.088l-.152 1.879a1.81 1.81 0 0 1-1.96.066l-.11-.066v-1.879z" class="cls-5" data-name="Path 3119" transform="translate(-219.856 -574.088)"/>
                </g>
                <g id="Group_641" data-name="Group 641" transform="translate(3.888 45.003)">
                    <path id="Path_3120" d="M221.1 503.378c1.461 18.7-2.362 42.378-2.362 42.378h-2.975s-.908-41.832-5.773-42.76c7.441.004 7.926.382 11.11.382z" class="cls-8" data-name="Path 3120" transform="translate(-205.535 -502.996)"/>
                    <path id="Path_3121" d="M214.3 503.638c1.142 15.293-8.9 42.378-8.9 42.378h-2.917a265.03 265.03 0 0 0 1.936-29.21c.013-3.22.651-9.828.327-12.786 3.077 0 6.774-.382 9.554-.382z" class="cls-7" data-name="Path 3121" transform="translate(-202.492 -503.256)"/>
                </g>
                <g id="Group_649" data-name="Group 649">
                    <g id="Group_643" data-name="Group 643" transform="translate(14.432 2.067)">
                        <g id="Group_642" data-name="Group 642" transform="translate(10.196)">
                            <path id="Path_3122" d="M240.313 434.7l1.237-1.916a.575.575 0 0 0 .029-.562l-.211-.426a.577.577 0 0 0-.329-.288l-2.128-.726a.575.575 0 0 0-.672.239l-.149.237a.577.577 0 0 0-.075.423l.578 2.773z" class="cls-4" data-name="Path 3122" transform="translate(-237.637 -430.753)"/>
                            <path id="Path_3123" d="M238.343 435.077l-.9-1.807a.551.551 0 0 1 .367-.78l.853-.2c.227-.054 1.083.874 1.083.874s-.487.79-1.182-.141a.866.866 0 0 1-.389.207 2.47 2.47 0 0 1 1.409 2.026z" class="cls-10" data-name="Path 3123" transform="translate(-237.388 -431.375)"/>
                        </g>
                        <path id="Path_3124" d="M233.462 436.919s-.623 11.8-1.6 16.317S225.7 465 225.7 465l-5.469-6.481s5.166-4.862 7.187-8.961 3.653-13.169 3.653-13.169z" class="cls-11" data-name="Path 3124" transform="translate(-220.233 -433.039)"/>
                    </g>
                    <g id="Group_644" data-name="Group 644">
                        <path id="Path_3125" d="M197.026 431.028l-1.018-2.041a.575.575 0 0 1 .034-.562l.257-.4a.576.576 0 0 1 .359-.25l2.2-.486a.574.574 0 0 1 .641.311l.122.253a.571.571 0 0 1 .029.428l-.88 2.692z" class="cls-4" data-name="Path 3125" transform="translate(-195.95 -427.275)"/>
                        <path id="Path_3126" d="M199.828 431.577l1.091-1.7a.55.55 0 0 0-.278-.815l-.826-.294c-.22-.078-1.173.749-1.173.749s.4.839 1.191-.01a.867.867 0 0 0 .364.248 2.471 2.471 0 0 0-1.624 1.857z" class="cls-4" data-name="Path 3126" transform="translate(-197.014 -427.88)"/>
                    </g>
                    <path id="Path_3127" d="M213.269 454.921c4.588 3.036 2.494 21.328 2.494 21.328l-13.626-.144 1.518-14.96S199.81 453.682 198.6 448a131.557 131.557 0 0 1-1.822-14.637h2.581s2.884 11.677 4.706 14.637a80.543 80.543 0 0 0 4.982 6.843z" class="cls-11" data-name="Path 3127" transform="translate(-196.284 -429.746)"/>
                    <g id="Group_645" data-name="Group 645" transform="translate(18.232 26.626)">
                        <path id="Path_3128" d="M227.85 490.967h.309c.338-3.822 1.015-14.433-1.366-18.893a10.32 10.32 0 0 1-.166.333c2.193 4.446 1.541 14.854 1.223 18.56z" class="cls-12" data-name="Path 3128" transform="translate(-226.627 -472.074)"/>
                    </g>
                    <g id="Group_648" data-name="Group 648" transform="translate(10.321 13.548)">
                        <g id="Group_646" data-name="Group 646" transform="translate(3.593 8.736)">
                            <path id="Path_3129" d="M219.361 467.38l.612-2.611 3 .335.223 3.1a.688.688 0 0 1-.062.062 8.529 8.529 0 0 0-3.773-.886z" class="cls-6" data-name="Path 3129" transform="translate(-219.361 -464.768)"/>
                        </g>
                        <g id="Group_647" data-name="Group 647">
                            <path id="Path_3130" d="M217.624 456.031l.787 4.107a.645.645 0 0 1 .688.732.787.787 0 0 1 .112.3 4.789 4.789 0 0 0 3.8.344c2.548-.866.263-5.706.263-5.706z" class="cls-6" data-name="Path 3130" transform="translate(-215.063 -452.396)"/>
                            <path id="Path_3131" d="M214.994 457a2.558 2.558 0 0 0-.823-1.053c-1.661-1.076-.465-2.2-.037-2.563.474-.407.24-1.336.84-1.957.916-.948 2.024-.252 2.665-.466s.928-1.146 1.951-.816 1.022 1.1 1.373 1.371.792-.68 1.866.191c1.633 1.325-1.062 2.365-1.062 2.365a5.106 5.106 0 0 1-3.566.333.668.668 0 0 0-.755.3c-.39.726.086 4.178.086 4.178l-.751-.467a1.89 1.89 0 0 1-1.787-1.416z" data-name="Path 3131" transform="translate(-213.316 -450.07)"/>
                            <path id="Path_3132" d="M218.8 461.266a.641.641 0 1 0 .232-.877.642.642 0 0 0-.232.877z" class="cls-6" data-name="Path 3132" transform="translate(-215.506 -454.221)"/>
                            <circle id="Ellipse_172" cx=".156" cy=".156" r=".156" data-name="Ellipse 172" transform="rotate(-9.283 38.47 -43.885)"/>
                            <circle id="Ellipse_173" cx=".156" cy=".156" r=".156" data-name="Ellipse 173" transform="rotate(-9.283 39.263 -34.169)"/>
                            <path id="Path_3133" d="M225.682 461.785c.04.244-.329.514-.828.6s-.934-.051-.975-.3" class="cls-13" data-name="Path 3133" transform="translate(-217.6 -454.822)"/>
                        </g>
                    </g>
                    <path id="Path_3134" d="M222.591 467.964l.062 1.422-4.64-.925.973-1.549z" class="cls-11" data-name="Path 3134" transform="translate(-204.9 -443.354)"/>
                </g>
            </g>
            <g id="Group_660" data-name="Group 660" transform="translate(76.522 46.366)">
                <path id="Path_3135" d="M269.544 464.815l7.186-3.02c1.535-.645 3.325-1.755 4-3.278l3.606-8.159 1.248.218s-.676 8.666-3.441 12.167-8.2 5.405-8.2 5.405z" class="cls-4" data-name="Path 3135" transform="translate(-260.018 -445.114)"/>
                <path id="Path_3136" d="M258.572 472.936s2.162-4.06 4.993-4.771c2.425 0 2.994.355 2.994.355a38.311 38.311 0 0 1 4.193 6.348 3.569 3.569 0 0 1-.016 2.92c-1.91 4.116-1.667 12.042-1.667 12.042h-9.542s1.669-11.863 1.349-14.207a3.012 3.012 0 0 0-2.304-2.687z" class="cls-8" data-name="Path 3136" transform="translate(-255.567 -452.338)"/>
                <g id="Group_652" data-name="Group 652" transform="translate(17.995 79.165)">
                    <g id="Group_651" data-name="Group 651" transform="translate(.518)">
                        <path id="Path_3137" d="M286.588 574.735l.563 1.465a1.882 1.882 0 0 0 .767.974 7.578 7.578 0 0 0 1.939.84c-1.129.963-2.924 0-3.951-.714a2.513 2.513 0 0 1-1-1.455l-.235-1.11z" class="cls-4" data-name="Path 3137" transform="translate(-284.666 -574.735)"/>
                    </g>
                    <path id="Path_3138" d="M284.435 576.017a1.616 1.616 0 0 0-.623 1.365c.14.765.338 2.556.338 2.556h.785l-.024-1.67c0-.109 1.683 1.67 1.968 1.67h4.153s.276-1.127-2.163-1.489a8.989 8.989 0 0 1-4.434-2.432z" class="cls-8" data-name="Path 3138" transform="translate(-283.794 -575.255)"/>
                </g>
                <path id="Path_3139" d="M271.822 504.618L279 546.385l-2.32.047s-5.09-8.778-5.839-16.055a5.793 5.793 0 0 0-.966-3.347c-5.992-7.018-4.287-18.1-4.287-18.1l3.241-4.309z" class="cls-8" data-name="Path 3139" transform="translate(-258.32 -467.126)"/>
                <g id="Group_654" data-name="Group 654" transform="translate(0 79.165)">
                    <g id="Group_653" data-name="Group 653" transform="translate(.518)">
                        <path id="Path_3140" d="M256.31 574.735l.563 1.465a1.882 1.882 0 0 0 .767.974 7.589 7.589 0 0 0 1.939.84c-1.128.963-2.924 0-3.951-.714a2.509 2.509 0 0 1-1-1.455l-.235-1.11z" class="cls-4" data-name="Path 3140" transform="translate(-254.388 -574.735)"/>
                    </g>
                    <path id="Path_3141" d="M254.157 576.017a1.617 1.617 0 0 0-.623 1.365c.14.765.338 2.556.338 2.556h.785l-.024-1.67c0-.109 1.683 1.67 1.968 1.67h4.153s.276-1.127-2.163-1.489a8.989 8.989 0 0 1-4.434-2.432z" class="cls-7" data-name="Path 3141" transform="translate(-253.516 -575.255)"/>
                </g>
                <g id="Group_656" data-name="Group 656" transform="translate(5.558 5.333)">
                    <path id="Path_3142" d="M270.712 463.508l.007 4.648-2.79-3.041.3-4.326z" class="cls-4" data-name="Path 3142" transform="translate(-264.921 -454.679)"/>
                    <path id="Path_3143" d="M269.124 452.547c-1.932.262-2.894 2.74-2.894 2.74l.022 7.331-3.351-2.9a26.132 26.132 0 0 1 .583-6.912c.717-2.269 3.609-2.867 5.64-1.76a4.514 4.514 0 0 1 1.923 2.645 8.358 8.358 0 0 1 .2 4.377l-1.149 5.38-1.431-1.418a5.85 5.85 0 0 1-.007-2.695c.74-2.697 1.761-6.965.464-6.788z" data-name="Path 3143" transform="translate(-262.868 -450.509)"/>
                    <path id="Path_3144" d="M267.477 458.629a.683.683 0 0 1 .906.089.589.589 0 0 1 .121.848.684.684 0 0 1-.906-.089.589.589 0 0 1-.121-.848z" class="cls-4" data-name="Path 3144" transform="translate(-264.684 -453.748)"/>
                    <g id="Group_655" data-name="Group 655" transform="translate(3.307 1.504)">
                        <path id="Path_3145" d="M271.723 460.427a1.509 1.509 0 0 0 .9-.235c1.079-1.72-.15-6.356-.15-6.356l-1.725-.8-2.191 1.5-.125 3.107a2.609 2.609 0 0 0 .978 2.143 4.186 4.186 0 0 0 2.313.641z" class="cls-4" data-name="Path 3145" transform="translate(-268.431 -453.04)"/>
                    </g>
                    <path id="Path_3146" d="M271.154 452.963c.413 1.385-3.259 2.994-3.259 2.994l-.922-1.73 1.686-2.066 2.131.341a1.225 1.225 0 0 1 .364.461z" data-name="Path 3146" transform="translate(-264.533 -451.179)"/>
                    <path id="Path_3147" d="M274.041 453.806c.077.546.93 1.209.93 1.209l.08-.653-.194-.459-.438-.243s-.455-.401-.378.146z" data-name="Path 3147" transform="translate(-267.397 -451.729)"/>
                    <path id="Path_3148" d="M273.725 462.4c-.058.681-1.037.366-1.677.132" class="cls-13" data-name="Path 3148" transform="translate(-266.592 -455.332)"/>
                    <ellipse id="Ellipse_174" cx=".195" cy=".179" data-name="Ellipse 174" rx=".195" ry=".179" transform="rotate(-1.13 264.918 -254.221)"/>
                    <ellipse id="Ellipse_175" cx=".184" cy=".179" data-name="Ellipse 175" rx=".184" ry=".179" transform="rotate(-1.13 259.377 -335.002)"/>
                </g>
                <path id="Path_3149" d="M258.176 504.618s-6.744 2.9-3.215 21.1a6.866 6.866 0 0 1-.231 3.221c-1.495 5.078-.648 17.489-.648 17.489h2.332s7.8-32.391 8.307-41.815z" class="cls-7" data-name="Path 3149" transform="translate(-253.649 -467.126)"/>
                <g id="Group_657" data-name="Group 657" transform="translate(23.37)">
                    <path id="Path_3150" d="M294.459 445.606a2.7 2.7 0 0 0 .213-1.566c-.068-.89-.788-2.691.2-2.488.625.76 1.457 1.579 1.457 1.579a2.943 2.943 0 0 1 .056 2.094l-.8 1.814s-.96.3-1 .326l-.225-.348a4.321 4.321 0 0 0 .099-1.411z" class="cls-4" data-name="Path 3150" transform="translate(-293.454 -441.536)"/>
                    <path id="Path_3151" d="M294.206 446.853a.7.7 0 0 0 .1-.116c.07.108.144.211.223.311.09.457.194.911.289 1.367-.288.019-.692.046-.72.053l-1.256-2.858s.3-.3.748.188a2.957 2.957 0 0 1 .616 1.055z" class="cls-4" data-name="Path 3151" transform="translate(-292.838 -443.152)"/>
                </g>
                <g id="Group_658" data-name="Group 658" transform="translate(3.322 16.215)">
                    <path id="Path_3152" d="M262.66 468.819l-.156.237c.039.026 3.824 2.57 3.824 6.724v16.931h-6.934l.22-13.038q-.141.112-.288.217l-.221 13.11h7.508v-17.22c0-4.306-3.913-6.935-3.953-6.961z" class="cls-14" data-name="Path 3152" transform="translate(-259.105 -468.819)"/>
                </g>
                <path id="Path_3153" d="M256.773 476.192s-4.748 12.284-1.5 13.4 9.181-7.715 9.181-7.715l-1.143-.892-5.414 4.62a14.073 14.073 0 0 0 1.822-5.54 3.045 3.045 0 0 0-2.946-3.873z" class="cls-4" data-name="Path 3153" transform="translate(-253.768 -455.595)"/>
                <path id="Path_3154" d="M269.327 482.067l.351-2.557a4.588 4.588 0 0 1 1.552-1.144.505.505 0 0 1 .534.2 6.31 6.31 0 0 1 .923 1.615.482.482 0 0 1-.179.382l-.816.709-1.075 1.48z" class="cls-4" data-name="Path 3154" transform="translate(-259.93 -456.47)"/>
                <g id="Group_659" data-name="Group 659" transform="translate(2.593 37.013)">
                    <rect id="Rectangle_162" width="9.058" height="6.758" class="cls-11" data-name="Rectangle 162" rx="3.379"/>
                    <path id="Path_3155" d="M266.938 507.051v-2.059a1.183 1.183 0 0 0-1.179-1.18h-6.7a1.183 1.183 0 0 0-1.179 1.18v2.059z" class="cls-2" data-name="Path 3155" transform="translate(-257.88 -503.812)"/>
                    <path id="Path_3156" d="M270.763 510.571c-.565 0-1.028-.242-1.028-.807v-5.145c0-.565.462-.807 1.028-.807a1.021 1.021 0 0 1 1.027.807v4.924a.913.913 0 0 1-1.027 1.028z" class="cls-14" data-name="Path 3156" transform="translate(-262.689 -503.812)"/>
                    <path id="Path_3157" d="M263.5 509.633a.313.313 0 0 1-.312-.311v-1.572a.313.313 0 0 1 .312-.311.312.312 0 0 1 .311.311v1.571a.312.312 0 0 1-.311.312z" class="cls-15" data-name="Path 3157" transform="translate(-260.032 -505.283)"/>
                </g>
            </g>
            <g id="Group_663" data-name="Group 663" transform="translate(0 49.242)">
                <g id="Group_661" data-name="Group 661" transform="translate(0 54.781)">
                    <path id="Path_3158" d="M125.716 574.326a1.57 1.57 0 0 0-.833 1.2c0 .755-.119 2.5-.119 2.5l.75.136.266-1.6c.021-.1 1.346 1.692 2.247 2.593l3.316.064s.459-1.029-1.81-1.8a8.744 8.744 0 0 1-3.817-3.093z" data-name="Path 3158" transform="translate(-124.764 -553.061)"/>
                    <path id="Path_3159" d="M129.06 546.572a14.347 14.347 0 0 1 .195-2.024 12.456 12.456 0 0 1 1.656-4.161c.813-.3 1.591-.678 2.422-1.006a21.785 21.785 0 0 1 2.937-.833l-.125.336c-4.857 12.815-7.572 18.635-8 20.012a1.6 1.6 0 0 0-.1.638 4.753 4.753 0 0 0 2.326 3.44c-2.067.515-4.01-3.161-4.01-3.161s2.596-8.831 2.699-13.241z" class="cls-5" data-name="Path 3159" transform="translate(-125.413 -538.547)"/>
                </g>
                <path id="Path_3160" d="M145.268 463.514l-.22 3.483-3.4-.7.409-4.733z" class="cls-6" data-name="Path 3160" transform="translate(-131.613 -452.534)"/>
                <path id="Path_3161" d="M146.075 458.934a2 2 0 0 0 1.2-.312c1.434-2.284-.2-8.442-.2-8.442l-5.2.933-.166 4.126a3.465 3.465 0 0 0 1.3 2.846 5.559 5.559 0 0 0 3.066.849z" class="cls-6" data-name="Path 3161" transform="translate(-131.636 -447.918)"/>
                <path id="Path_3162" d="M143.016 576.369a1.516 1.516 0 0 0-.585 1.28c.131.717.317 2.4.317 2.4h.736l-.023-1.567c0-.1 1.578 1.567 1.845 1.567h3.894s.259-1.057-2.028-1.4a8.432 8.432 0 0 1-4.156-2.28z" data-name="Path 3162" transform="translate(-131.924 -499.109)"/>
                <g id="Group_662" data-name="Group 662" transform="translate(8.328 54.003)">
                    <path id="Path_3163" d="M139.565 547.266a14.334 14.334 0 0 1-.519-1.966 21.424 21.424 0 0 1-.152-5.534c.659-.565 1.52-.131 2.185-.727a21.775 21.775 0 0 1 2.466-1.8v.359c-.112 13.7-.641 20.1-.561 21.543.012.22.661 3.052 2.957 3.646-1.76 1.2-4.4-2.291-4.4-2.291s-.541-9.058-1.976-13.23z" class="cls-6" data-name="Path 3163" transform="translate(-138.777 -537.238)"/>
                </g>
                <path id="Path_3164" d="M140.856 468.208l3.267 5.338a4.181 4.181 0 0 1 .3 2.72l-2.075 9.11a7.98 7.98 0 0 0-.2 1.61l-.5 23.883h-10.426a73.961 73.961 0 0 0 1.985-10.8c.662-6.085-1.275-8.733-.735-11.4a13.113 13.113 0 0 1 2.568-5.2 5.055 5.055 0 0 0 1.081-3.043c.111-4.517-4.62-16.988-.1-13.953s4.835 1.735 4.835 1.735z" class="cls-8" data-name="Path 3164" transform="translate(-127.384 -454.339)"/>
                <path id="Path_3165" d="M145.577 492.438l.245.876a4.927 4.927 0 0 0 .7 1.322c1.15 1.918 5.024 6.616 5.024 6.616l3.132 1.775s-.064.452-.774.323a3.214 3.214 0 0 1-1.227-.516s-.13.515.516 1.55c.483.773 2.031 2.09.968 2.324a17.917 17.917 0 0 1-2.157-1.193 2.087 2.087 0 0 1-1.047-1.474l-.283-1.658-6.65-5.436a5.032 5.032 0 0 1-1.591-2.311l-.022-.067z" class="cls-6" data-name="Path 3165" transform="translate(-131.924 -465.061)"/>
                <path id="Path_3166" d="M177.036 481.975a2.937 2.937 0 0 0 1.623-.569c.828-.506 2.216-2.1 2.509-1.04-.426.981-.808 2.193-.808 2.193a3.2 3.2 0 0 1-2 1.092l-2.151.127s-.77-.779-.812-.81l.225-.39a4.7 4.7 0 0 0 1.414-.603z" class="cls-6" data-name="Path 3166" transform="translate(-145.304 -460.02)"/>
                <path id="Path_3167" d="M140.016 451.088a5.3 5.3 0 0 0 2.808.649 3.564 3.564 0 0 0 2.749-1.811 1.815 1.815 0 0 0-.767-2.518 1.892 1.892 0 0 0-2.308.17.873.873 0 0 1-1.156.031 5.343 5.343 0 0 0-3.521-1.234c-1.809 0-1.759 1.754-1.484 3.029a1.832 1.832 0 0 1-.811 1.951c-1.074.665-2.442 1.749-2.16 2.834a6.43 6.43 0 0 0 1.2 2.256 1.6 1.6 0 0 1 .015 1.955c-.667.881-1.449 2.16-1.218 3.085a10.893 10.893 0 0 0 1.4 2.813 1.744 1.744 0 0 1 0 1.888 2.319 2.319 0 0 0-.367 1.756 4.044 4.044 0 0 0 .66 1.42 1.134 1.134 0 0 0 1.943-.149c1.185-2.392 3.259-7.287 2.535-11.021-.363-1.872-.858-5.176-.858-5.176s-.532-2.725 1.34-1.928z" data-name="Path 3167" transform="translate(-128.237 -446.374)"/>
                <path id="Path_3168" d="M149.133 486.212l3.982 2.064a2.18 2.18 0 0 0 1.612.158l10.952-3.459v-1.383l-10.674 1.3-3.339-1.775z" class="cls-6" data-name="Path 3168" transform="translate(-134.65 -461.278)"/>
                <path id="Path_3169" d="M141.066 455.824a.907.907 0 0 1 1.2.118.782.782 0 0 1 .16 1.126.907.907 0 0 1-1.2-.118.782.782 0 0 1-.16-1.126z" class="cls-6" data-name="Path 3169" transform="translate(-131.306 -450.135)"/>
                <path id="Path_3170" d="M147.735 483.017l1.1-6.81 4.73 5.435-1.3 4.229-4.507-2.331c.142-.52.006 0-.023-.523z" class="cls-8" data-name="Path 3170" transform="translate(-134.083 -458.476)"/>
                <path id="Path_3171" d="M177.954 482.274a.847.847 0 0 0 .16.036c-.07.121-.133.245-.191.37-.4.313-.786.64-1.181.957-.161-.269-.387-.647-.408-.672l2.146-2.632s.434.14.188.818a3.217 3.217 0 0 1-.714 1.123z" class="cls-6" data-name="Path 3171" transform="translate(-145.684 -460.15)"/>
                <circle id="Ellipse_176" cx=".156" cy=".156" r=".156" data-name="Ellipse 176" transform="translate(13.462 6.862)"/>
                <circle id="Ellipse_177" cx=".156" cy=".156" r=".156" data-name="Ellipse 177" transform="translate(15.04 6.862)"/>
                <path id="Path_3172" d="M149.3 461.266c0 .253-.408.455-.913.455s-.914-.207-.914-.455" class="cls-13" data-name="Path 3172" transform="translate(-133.976 -452.415)"/>
            </g>
            <g id="Group_664" data-name="Group 664" transform="translate(14.459 63.284)">
                <path id="Path_3173" d="M173.757 470l5.075 13.914 13.071 6.125-11.392 9.427-2.059 14.023-12.213-7.62-14.245 2.075 3.746-13.669-6.648-13.208 14.43-.361z" class="cls-2" data-name="Path 3173" transform="translate(-149.092 -470)"/>
                <path id="Path_3174" d="M203.705 490.253l-13.071-6.125-4.994-13.6-7.454 35.672 12.069 7.5 2.059-14.023z" class="cls-3" data-name="Path 3174" transform="translate(-160.894 -470.214)"/>
            </g>
            <g id="Group_665" data-name="Group 665" transform="translate(37.742)">
                <path id="Path_3175" d="M211.543 363.521l6.6 13.26 13.673 4.628-10.269 10.639-.481 14.165L208.075 400l-13.925 3.651 2.2-14-8.08-12.384 14.3-1.969z" class="cls-2" data-name="Path 3175" transform="translate(-188.267 -363.521)"/>
                <path id="Path_3176" d="M245.439 381.616l-13.673-4.628-6.481-12.958-3.426 36.283 12.831 6.107.481-14.165z" class="cls-3" data-name="Path 3176" transform="translate(-201.895 -363.728)"/>
            </g>
            <g id="Group_666" data-name="Group 666" transform="translate(89.247 23.108)">
                <path id="Path_3177" d="M293.093 402.4l2.814 10.18 8.943 5.1-8.636 6.052-2.263 9.851-8.251-6.113-10.245.662 3.442-9.5-3.972-9.768 10.279.567z" class="cls-2" data-name="Path 3177" transform="translate(-274.928 -402.401)"/>
                <path id="Path_3178" d="M312.27 417.836l-8.943-5.1-2.775-9.953-7.334 24.935 8.152 6.021 2.263-9.851z" class="cls-3" data-name="Path 3178" transform="translate(-282.348 -402.556)"/>
            </g>
            <g id="Group_673" data-name="Group 673" transform="translate(112.918 51.439)">
                <g id="Group_667" data-name="Group 667" transform="translate(16.074 74.982)">
                    <path id="Path_3179" d="M346.453 578.876a8.6 8.6 0 0 1-3.53 1.623c-.54.137-1.123-.046-1.123.845h2.978l2.477-.428v.428h1.337s.373-2.187-.408-2.468z" class="cls-7" data-name="Path 3179" transform="translate(-341.801 -577.305)"/>
                    <path id="Path_3180" d="M349.78 576.232l-.151 1.571a1.513 1.513 0 0 0 1.639.055l.092-.055.278-1.571z" class="cls-4" data-name="Path 3180" transform="translate(-344.977 -576.232)"/>
                </g>
                <g id="Group_668" data-name="Group 668" transform="translate(26.859 74.982)">
                    <path id="Path_3181" d="M364.6 578.876a8.6 8.6 0 0 1-3.53 1.623c-.54.137-1.123-.046-1.123.845h2.978l2.476-.428v.428h1.338s.373-2.187-.409-2.468z" class="cls-7" data-name="Path 3181" transform="translate(-359.946 -577.305)"/>
                    <path id="Path_3182" d="M367.924 576.232l-.15 1.571a1.513 1.513 0 0 0 1.639.055l.091-.055.278-1.571z" class="cls-4" data-name="Path 3182" transform="translate(-363.122 -576.232)"/>
                </g>
                <g id="Group_669" data-name="Group 669" transform="translate(0 15.23)">
                    <path id="Path_3183" d="M319.526 477.614a3.214 3.214 0 0 1-1.86-.239c-1-.352-2.839-1.733-2.911-.541.677.95 1.359 2.156 1.359 2.156a3.491 3.491 0 0 0 2.381.711l2.324-.352s.644-1.006.683-1.048l-.329-.366a5.147 5.147 0 0 1-1.647-.321z" class="cls-4" data-name="Path 3183" transform="translate(-314.755 -475.964)"/>
                    <path id="Path_3184" d="M321.066 477.646a.892.892 0 0 1-.163.074c.1.113.2.231.288.351.5.244.984.5 1.477.754.111-.324.266-.779.283-.809l-2.885-2.321s-.433.247-.016.915a3.51 3.51 0 0 0 1.016 1.036z" class="cls-4" data-name="Path 3184" transform="translate(-316.829 -475.695)"/>
                </g>
                <g id="Group_671" data-name="Group 671" transform="translate(23.71)">
                    <path id="Path_3185" d="M360.275 463.071l-.312 3.075 3.3.13-.66-4.768z" class="cls-4" data-name="Path 3185" transform="translate(-356.804 -454.71)"/>
                    <g id="Group_670" data-name="Group 670" transform="translate(1.081 2.026)">
                        <path id="Path_3186" d="M357.845 460.375a1.653 1.653 0 0 1-.924-.219c-1.1-1.606.153-5.935.153-5.935l1.765-.743 2.242 1.4.128 2.9a2.354 2.354 0 0 1-1 2 4.591 4.591 0 0 1-2.364.597z" class="cls-4" data-name="Path 3186" transform="translate(-356.467 -453.478)"/>
                    </g>
                    <path id="Path_3187" d="M359.99 455.138c-.123-.487-.059-1.612-.555-1.53-.362.059-1.6.111-2.02.111-.995 0-2.768-.389-2.768-1.9a1.951 1.951 0 0 1 2.638-1.621c1.1.383 2.548 1.227 3.127 1.111.975-.2 1.947.376 1.933 1.2a8.274 8.274 0 0 1-.911 3.06 4.647 4.647 0 0 1-.993 1.3z" data-name="Path 3187" transform="translate(-354.648 -450.07)"/>
                    <path id="Path_3188" d="M364.524 458.7a.748.748 0 0 0-.927.083c-.29.241-.346.6-.124.792a.749.749 0 0 0 .927-.083c.291-.246.346-.601.124-.792z" class="cls-4" data-name="Path 3188" transform="translate(-358.173 -453.518)"/>
                    <circle id="Ellipse_178" cx=".151" cy=".151" r=".151" data-name="Ellipse 178" transform="translate(1.872 4.713)"/>
                    <circle id="Ellipse_179" cx=".151" cy=".151" r=".151" data-name="Ellipse 179" transform="translate(3.406 4.713)"/>
                    <path id="Path_3189" d="M359.631 461.253c0 .245-.4.442-.889.442s-.888-.2-.888-.442" class="cls-13" data-name="Path 3189" transform="translate(-355.949 -454.606)"/>
                </g>
                <path id="Path_3190" d="M342.342 470.678c-6.21 4.828-18.254 3.551-18.254 3.551l-.557 3.157s15.281 4.515 17.187.9 7.834-12.436 1.624-7.608z" class="cls-11" data-name="Path 3190" transform="translate(-318.315 -457.858)"/>
                <path id="Path_3191" d="M358.089 467.81c-.113 0-.224 0-.333.006-3.634.133-6.473 5.148-6.473 8.785v13.152h14.027V474.7a6.821 6.821 0 0 0-5.7-6.778 9.983 9.983 0 0 0-1.521-.112z" class="cls-11" data-name="Path 3191" transform="translate(-329.573 -457.266)"/>
                <path id="Path_3192" d="M351.288 498.307l-3.1.357c-1.27.049-2.287-1.758-2.628-3.14a.286.286 0 0 1 .348-.343 39.626 39.626 0 0 1 4.638 1.344z" class="cls-4" data-name="Path 3192" transform="translate(-327.246 -468.366)"/>
                <path id="Path_3193" d="M365.433 473.877s7.074 9.449 2.63 14.032-14.443 2.639-14.443 2.639v-2.916s9.443.023 10-3.183-2.245-6.678-2.245-6.678" class="cls-11" data-name="Path 3193" transform="translate(-330.521 -459.728)"/>
                <g id="Group_672" data-name="Group 672" transform="translate(22.96 17.955)">
                    <path id="Path_3194" d="M366.163 491.721c-4.477 2.579-11.525 1.478-12.5 1.309v-2.662c1.226-.01 9.459-.193 10-3.3.56-3.231-2.158-6.645-2.275-6.789l-.216.175c.027.034 2.755 3.459 2.217 6.567-.527 3.039-9.675 3.067-9.86 3.067h-.141v3.17l.112.022a28.529 28.529 0 0 0 4.8.4 16.729 16.729 0 0 0 7.86-1.649z" class="cls-12" data-name="Path 3194" transform="translate(-353.386 -480.281)"/>
                </g>
                <path id="Path_3195" d="M349.994 504.73c-1.6 7.78-1.85 16.153-1.886 23.181a185.846 185.846 0 0 0 .871 19.593h2.314l4.833-32.359s.527 4.812 1.24 12.972c.56 6.4.824 11.816 2.328 19.387h2.322s2-23.366 2-42.774z" class="cls-7" data-name="Path 3195" transform="translate(-328.284 -472.244)"/>
                <path id="Path_3196" d="M359.952 466.412h2.93l.466 1.079h-3.774z" class="cls-11" data-name="Path 3196" transform="translate(-332.937 -456.699)"/>
            </g>
            <g id="Group_674" data-name="Group 674" transform="translate(96.654 61.709)">
                <path id="Path_3197" d="M300.433 467.35l12.425 8.06 14.126-2.972-3.427 14.384 6.793 12.439-14.34 1.262-10.13 10.228-5.233-13.172-13.257-6.55 11.309-8.97z" class="cls-2" data-name="Path 3197" transform="translate(-287.39 -467.35)"/>
                <path id="Path_3198" d="M336.059 472.575l-14.126 2.972-12.172-7.858 15.51 32.979 14.153-1.27-6.793-12.439z" class="cls-3" data-name="Path 3198" transform="translate(-296.466 -467.488)"/>
            </g>
        </g>
    </g>
</svg>
