<svg xmlns="http://www.w3.org/2000/svg" width="123.337" height="120.084" viewBox="0 0 123.337 120.084">
    <defs>
        <style>
            .cls-1{fill:#ccc;opacity:.4}.cls-2{fill:#676767}.cls-3{fill:#010202}.cls-4{fill:#999}.cls-5{opacity:.5}.cls-6{fill:#4e4d4d}.cls-7{fill:#f4bc8f}.cls-8{fill:#3f3f3f}.cls-9{fill:#1a1a1a}.cls-10{fill:#ebd619}.cls-11{fill:#dbdbdb}.cls-12{fill:#f7b58e}.cls-13{fill:#eb9d68}.cls-14{fill:#333}.cls-15{fill:#efefef}.cls-16{fill:#fff}
        </style>
    </defs>
    <g id="Group_725" data-name="Group 725" transform="translate(-93.22 -75.677)">
        <ellipse id="Ellipse_194" cx="61.669" cy="12.738" class="cls-1" data-name="Ellipse 194" rx="61.669" ry="12.738" transform="translate(93.22 170.285)"/>
        <g id="Illustrations" transform="translate(97.22 75.677)">
            <g id="Group_598" data-name="Group 598" transform="translate(0 16.331)">
                <path id="Path_2915" d="M264.242 536.555c-.913-2.424-1.282-9.159-1.282-9.159H242c-.773 5.51-.428 5.812-1.16 8.771-.8 3.243-9.242 4.181-9.883 4.351-.007.019-.189.207-.2.225 1.332.321 22.907 1.538 43.03-.191-1.96-.097-8.579-1.432-9.545-3.997z" class="cls-2" data-name="Path 2915" transform="translate(-192.43 -447.56)"/>
                <path id="Rectangle_156" d="M7.187 0h102.136a7.188 7.188 0 0 1 7.188 7.188v65.934a7.187 7.187 0 0 1-7.187 7.187H7.187A7.187 7.187 0 0 1 0 73.122V7.187A7.187 7.187 0 0 1 7.187 0z" class="cls-2" data-name="Rectangle 156"/>
                <path id="Path_2916" d="M130.555 514.5a.661.661 0 0 0-.009.091v3.937c0 .758 1.229 1.373 2.746 1.373h110.951c1.517 0 2.747-.615 2.747-1.373v-3.938a.657.657 0 0 0-.01-.091z" class="cls-2" data-name="Path 2916" transform="translate(-130.512 -439.591)"/>
                <g id="Group_597" data-name="Group 597" transform="translate(37.966 92.885)">
                    <path id="Path_2917" d="M229.876 562.054s-.285 1.078.388 1.324c16.286.827 30.828 1.155 43.019-.2a1.068 1.068 0 0 0 .086-1.324 297.633 297.633 0 0 1-43.493.2z" class="cls-3" data-name="Path 2917" transform="translate(-229.816 -561.733)"/>
                    <path id="Path_2918" d="M230.137 561.546s-.576.428.1.673c21.634 1.508 42.5.451 43.106.036.269-.209.428-.414.086-.71a277.646 277.646 0 0 1-43.292.001z" class="cls-3" data-name="Path 2918" transform="translate(-229.873 -561.546)"/>
                </g>
                <path id="Rectangle_157" d="M0 0h108.389v61.884H0z" class="cls-4" data-name="Rectangle 157" transform="translate(3.897 6.05)"/>
            </g>
            <g id="Group_599" class="cls-5" data-name="Group 599" transform="translate(9.822 24.831)">
                <path id="Path_2919" d="M311.9 452.241c-.032.076-2.93 4.679-1.072 4.679 1.022 0 2.072-4.538 1.072-4.679z" class="cls-6" data-name="Path 2919" transform="translate(-251.341 -409.623)"/>
                <path id="Path_2920" d="M358.671 437.091c0 3.346 2.844.021 2.844-1.463a1.056 1.056 0 0 1-.562-.636c-.029 0-2.282 2.226-2.282 2.099z" class="cls-6" data-name="Path 2920" transform="translate(-281.29 -398.965)"/>
                <path id="Path_2921" d="M369.2 441.657c.011.002.013.002 0 0z" class="cls-6" data-name="Path 2921" transform="translate(-287.796 -403.083)"/>
                <path id="Path_2922" d="M366.026 443.3c.518 0-.222-1 .208-1a2.951 2.951 0 0 1 .2.719c.135-.46.342-.929.521-1.461-.032 0-.162-.028-.318-.06-.769.741-1.631 1.802-.611 1.802z" class="cls-6" data-name="Path 2922" transform="translate(-285.546 -402.987)"/>
                <path id="Path_2923" d="M367.076 440.853c-.832 0-.195.157.244.248.084-.081.167-.159.247-.23-.153.003-.321-.018-.491-.018z" class="cls-6" data-name="Path 2923" transform="translate(-286.232 -402.586)"/>
                <path id="Path_2924" d="M369.589 439.712a3.706 3.706 0 0 0-.573.454.531.531 0 0 0 .573-.454z" class="cls-6" data-name="Path 2924" transform="translate(-287.682 -401.881)"/>
                <path id="Path_2925" d="M358.669 447.237c1.034 0-2.3-1.465-2.549-.613.68.001 1.934.613 2.549.613z" class="cls-6" data-name="Path 2925" transform="translate(-279.713 -405.988)"/>
                <path id="Path_2926" d="M367.656 448.57c.357-.132-.91-.613 0 0z" class="cls-6" data-name="Path 2926" transform="translate(-286.634 -407.167)"/>
                <path id="Path_2927" d="M365.416 448.566c0 .256 0 .229 0 0z" class="cls-6" data-name="Path 2927" transform="translate(-285.457 -407.352)"/>
                <path id="Path_2928" d="M366.885 449.424c0 .752 0-.068 0 0z" class="cls-6" data-name="Path 2928" transform="translate(-286.365 -407.88)"/>
                <path id="Path_2929" d="M364.076 448.537c-.055.348.053 0 0 0z" class="cls-6" data-name="Path 2929" transform="translate(-284.619 -407.334)"/>
                <path id="Path_2930" d="M369.781 449.04q1.182-.454-.04-.177c-.809.969-.109.177.04.177z" class="cls-6" data-name="Path 2930" transform="translate(-287.893 -407.471)"/>
                <path id="Path_2931" d="M375.491 441.966c-.334.678-.588-.151-.276.6.416 1.507 3.567 1.428 4.988 2.275a13.689 13.689 0 0 0-1.042-1.651c-2.082-1.248-1.369-.885-3.207-.885.07 0-1.319-1.828-1.319-.7 0 .454.665.316.856.361z" class="cls-6" data-name="Path 2931" transform="translate(-291.154 -402.826)"/>
                <path id="Path_2932" d="M387.412 478.478c.079-.455-.209-.081 0 0z" class="cls-6" data-name="Path 2932" transform="translate(-299 -425.697)"/>
                <path id="Path_2933" d="M378.911 474.186a.244.244 0 0 0 .344 0c-.138-.086-.155-.106-.344 0z" class="cls-6" data-name="Path 2933" transform="translate(-293.796 -423.138)"/>
                <path id="Path_2934" d="M370.139 450.726c-.447.285-.035 2.43-.689 2.43-1.061 0-1.514-1.833-2.342-2.24.288 1.857-4.452 1.789-5.186 3.832a17.3 17.3 0 0 0 .414 4.28c1.306.923 2.072-.589 3.261-.577a9.382 9.382 0 0 1 2.524.93 2.355 2.355 0 0 0 .631-.826c0 .089-.29.967-.187.967a.417.417 0 0 0 .266-.376c.848 1.011 1.6 2.609 3.385.989 0-2.024 1.177-2.245.708-4.456-1.118-1.342-2.624-3.179-2.785-4.953z" class="cls-6" data-name="Path 2934" transform="translate(-283.272 -408.687)"/>
                <path id="Path_2935" d="M405.434 472.791a18.454 18.454 0 0 1 .68 2.782c.363 0 .906-1.556.846-1.556-.653 0-1.151-.532-1.526-1.226z" class="cls-6" data-name="Path 2935" transform="translate(-310.184 -422.32)"/>
                <path id="Path_2936" d="M368.464 433.7c.245 0 .594.235.86.235.119 0 .028-.418.079-.5a2.819 2.819 0 0 1 .159.263c.021-.256.179-1.181-.245-1.187-.041.133-1.143 1.183-.853 1.189z" class="cls-6" data-name="Path 2936" transform="translate(-287.31 -397.428)"/>
                <path id="Path_2937" d="M371.411 435.612v.038c.014.005.012-.011 0-.038z" class="cls-6" data-name="Path 2937" transform="translate(-289.16 -399.348)"/>
                <path id="Path_2938" d="M367.59 426.755a3.692 3.692 0 0 1-.554-1.892q-.162.238-.277-.089a8.207 8.207 0 0 0-.17 1.2c-.003.156.69.606 1.001.781z" class="cls-6" data-name="Path 2938" transform="translate(-286.182 -392.651)"/>
                <path id="Path_2939" d="M367.142 418.36q-.585.511-.2 1.038a.888.888 0 0 0 .2-1.038z" class="cls-6" data-name="Path 2939" transform="translate(-286.306 -388.688)"/>
                <path id="Path_2940" d="M356.29 442.814c-.322-.787.251.856 0 0z" class="cls-6" data-name="Path 2940" transform="translate(-279.756 -403.662)"/>
                <path id="Path_2942" d="M351.513 442.643v.052z" class="cls-6" data-name="Path 2942" transform="translate(-276.867 -403.692)"/>
                <path id="Path_2943" d="M351.5 442.476l.006.064z" class="cls-6" data-name="Path 2943" transform="translate(-276.857 -403.589)"/>
                <path id="Path_2944" d="M351.469 442.172l.011.116z" class="cls-6" data-name="Path 2944" transform="translate(-276.84 -403.401)"/>
                <path id="Path_2945" d="M351.464 442.119v-.033z" class="cls-6" data-name="Path 2945" transform="translate(-276.835 -403.348)"/>
                <path id="Path_2946" d="M350.454 440.209c.075.2.416.316 0 0z" class="cls-6" data-name="Path 2946" transform="translate(-276.212 -402.188)"/>
                <path id="Path_2947" d="M376.948 404.3a8.325 8.325 0 0 0-1.26.617 2.136 2.136 0 0 1 1.024.561c-.209.489 3.007-3.064 1.5-3.064-.019.068 0 .108.049.118-.421.409-.985 1.768-1.313 1.768z" class="cls-6" data-name="Path 2947" transform="translate(-291.804 -378.832)"/>
                <path id="Path_2948" d="M381.844 398.94c-.211.885.6.576 1.427-.082q-.2-.124-.06-.3-.6.143-.974-.565c-.186.333-.237.871-.393.947z" class="cls-6" data-name="Path 2948" transform="translate(-295.587 -376.106)"/>
                <path id="Path_2949" d="M385.537 399.126c.407-.723-.205.357 0 0z" class="cls-6" data-name="Path 2949" transform="translate(-297.863 -376.646)"/>
                <path id="Path_2951" d="M383.369 388.409c-.461-1.8-.266 3.149-.315 3.149.374 0 .14-.466.463-.153-.396-1.005.183-1.591-.148-2.996z" class="cls-6" data-name="Path 2951" transform="translate(-296.355 -369.938)"/>
                <path id="Path_2952" d="M318.453 358.788l-.015-.038c.015.019.027.032 0 0-1.395-3.46 3.233-2.213 3.233-3.992 0-.529-4.663 1.562-4.742 3.538a1.9 1.9 0 0 0 1.524.492z" class="cls-6" data-name="Path 2952" transform="translate(-255.497 -349.336)"/>
                <path id="Path_2953" d="M289.526 368.77c-.125.055-.034.058 0 0z" class="cls-6" data-name="Path 2953" transform="translate(-238.526 -358.047)"/>
                <path id="Path_2954" d="M288.487 386.7c-.006 0-.014-.007-.022-.018a.021.021 0 0 0 .022.018z" class="cls-6" data-name="Path 2954" transform="translate(-237.91 -369.118)"/>
                <path id="Path_2955" d="M286.462 383.8s.004 0 0 0z" class="cls-6" data-name="Path 2955" transform="translate(-236.672 -367.334)"/>
                <path id="Path_2956" d="M295.387 406.914a3.942 3.942 0 0 0-.185-.266c-.038.068-.002.152.185.266z" class="cls-6" data-name="Path 2956" transform="translate(-242.064 -381.451)"/>
                <path id="Path_2957" d="M314.572 404.932h-.056c.018.028.036.032.056 0z" class="cls-6" data-name="Path 2957" transform="translate(-254.007 -380.389)"/>
                <path id="Path_2958" d="M350.87 427.573z" class="cls-6" data-name="Path 2958" transform="translate(-276.468 -394.38)"/>
                <path id="Path_2959" d="M322.343 359.26a3.877 3.877 0 0 0-3.433-.379c-1.752-.03-3.8-1.592-5.423-1.744-2.514-.236-3.034.25-5.411-.058.959.124-6.669-2.234-6.815-1.023.071-.654 2.066-.8 1.8-1.656-1.168-3.823-10.009 3.489-10.959 2.031.01-.073-.641 2.912-.235 2.912-.836 0-.078-3.2-.818-2.912-.832.326-1.943 2.567-.759 2.777-2.839-.5-3.118.819-6.177.819-.3 0-.258-1.084-.389-1-.964.661-.932 2.018-2.269 2.528a1.346 1.346 0 0 1-.689-1.121c.057 0 2.206.44 1.908-.52-.518-1.671-3.489-.792-3.109-2-.779-.477-.763.268-1.437.188.216-.887-2.311 1-2.558.649-.047.055-.3.237-.315.306.049.063.046.109.029.139a3.135 3.135 0 0 1 .5-.151c-.321 1.616-2.679 2.533-2.942 3.6-.169.686-.008 3.419 1.26 1.238.12.205.588 1.973.736 2.164-.108-.36 3.446-6.078 3.446-4.993 0 .945-1.483.755-1.141 1.993.375 1.355 1.848-.28 2.145.7-.678.543-5.952 5.4-5.215 1.207-.113.182-4.132 5.169-4.132 4.3 0 1.483.558.707.137 2.064.058-.188-3.095 1.809-.817 2.477 2.539.744 1.241-2.1 3.09-2.5 2.05-.446 2.663 2.169 3.248 2.169.743 0-.394-1.014.69-.767.081-.709-1.694-1.162-1.694-2.157 0-.5 2.16 2.23 2.826 3.141.085-.149.538-.2.567-.195a2.507 2.507 0 0 1-.529-.835c0-.343 1.094-.072 1.6-.318a1 1 0 0 0-.411.518c-.545 1.444 1.778 1.421 2.588 1.049a6.262 6.262 0 0 1-.458 2.218c-1.052-2.484-6.667 2.373-6.41-2.3-1.3.277-3.834.1-4.831.8-1.75 1.228-3.7 6.093-2.961 8.077 1.007 2.7 2.8 1.8 4.4 2.535 2.474 1.135 2.81.252 3.607 3.714.943 4.1.408 14.861 5.79 7.345a20.177 20.177 0 0 0 2.1-5.283c.321-1.254-.277-1.975.274-3.433.495-1.308 3.432-2.863 2.678-4.667a2.456 2.456 0 0 1-2.687-.7l.4-.507c.324.476.595.794.729.822 2.225.467 4.662-3.051 3.034-4.659-.666.6-1.054.764-1.284.687l1.168-1.484a43.35 43.35 0 0 0 4 2 .319.319 0 0 1-.374.224c1.1 1.326.279.07 1.042-.011 0 .637.64 5 1.4 4.893.53 0 1.351-3.363 2.16-3.91 2.967-2 1.121 1.315 2.73 1.315 1.421 0 .7 2.926 1.409 4.219a6.624 6.624 0 0 0-1.32-.8c.331.541 2.922 3.792 2.922 3.691a3.431 3.431 0 0 0-1.023-2.363 1.278 1.278 0 0 0 .452.076.207.207 0 0 1 .2-.058 19.9 19.9 0 0 1-1.409-3.4c-.049.128-.081.228-.115.33.034-.1.066-.2.115-.33-.072-.379-.034-.632.2-.632.179 0 2.184 1.847 1.653 1.249 0-3.245.835-2.5 2.136-4.415.854-1.256 1.722-1.33 2.165-3.283.342-1.505-1.032-.459.373-2.146-.308-.509-1.378.486-1.378-.53 0 .1.965-.872 1-.872q.406.286 0 .707c1.351 0 1.417.275 1.417 1.757.9-2.571 3.227-4.3 4.106-7.776.265-1.046-1.964.362-1.021-1.3 1.164-2.057 2.25-1.086 3.788-1.71.522-.212 3.743-1.442 3.774-1.352.394 1.162-4.338 2.9-1.978 5.125.424-.762 1.289-3.173 1.856-3.582.755-.544 4-.858 4.429-1.927.82-2.061.592-.781 2.915-1.708a7.582 7.582 0 0 0-2.066-1.286zm-35.935 11.153c-.43.409-1.424-.3-.984.66.168.349.954 1.064.954 1.274 0 .077-.082.875-.115 1.465l-.058.071c-.9.257-1.171-.255-1.431-.869h.024c-.238-.414-.254-5.942 1.61-2.601zm-7.262 1.864a.4.4 0 0 0 .079-.072c-.147-.261-.215-2.251.659-2.251.6 0 .587 1.831 1.455.518-1.014 0 .186-.59.494-.732-.075.335.094 2.459.823 2.317-1.068.386-2.656-.221-3.51.22z" class="cls-6" data-name="Path 2959" transform="translate(-224.288 -348.475)"/>
                <path id="Path_2960" d="M351.62 430.795l-.012.031z" class="cls-6" data-name="Path 2960" transform="translate(-276.925 -396.371)"/>
                <path id="Path_2961" d="M296.709 406.138s.002 0 0 0z" class="cls-6" data-name="Path 2961" transform="translate(-243.004 -381.136)"/>
                <path id="Path_2962" d="M361.718 359.056c-.04.027-.182.18 0 0z" class="cls-6" data-name="Path 2962" transform="translate(-283.116 -352.045)"/>
                <path id="Path_2963" d="M353.317 350.216c0-.7-1.7-.861-1.7.354-.002.475 1.7-.37 1.7-.354z" class="cls-6" data-name="Path 2963" transform="translate(-276.93 -346.247)"/>
                <path id="Path_2964" d="M347.079 346.76c-1.355.509.5.984 1.211.307a1.443 1.443 0 0 0-1.024-.353c.315-.191.07-.35.306-.46-.986-.879-.709-.076-1.625.236a2.123 2.123 0 0 0 1.132.27z" class="cls-6" data-name="Path 2964" transform="translate(-273.428 -343.888)"/>
                <path id="Path_2965" d="M312.027 346.807c.5 0-.2.473.324.473a2.633 2.633 0 0 0 .705-.233c-.047.045-.155.162 0 0 .163-.077.291-.163.3-.239-.43-.17-2.894-.001-1.329-.001z" class="cls-6" data-name="Path 2965" transform="translate(-252.151 -344.43)"/>
                <path id="Path_2966" d="M322.833 346.784c-.12-.246.394-.486-.344-.471 0 .187-.57 1.026.344.471z" class="cls-6" data-name="Path 2966" transform="translate(-258.825 -344.17)"/>
                <path id="Path_2967" d="M319.449 345.681c.194 0-.081-.521.05-.735-.313.179-.863.556-.807.522-.455.423.73.213.757.213z" class="cls-6" data-name="Path 2967" transform="translate(-256.523 -343.326)"/>
                <path id="Path_2968" d="M287.2 349.49c.418 0 .574.691 1.367.436a3.465 3.465 0 0 1-.777.412 1.671 1.671 0 0 0 .816.212 1.111 1.111 0 0 1-.688.083 1.261 1.261 0 0 0 .767.742c.168-.2.69-1.568.974-1.568.636.608-.16 1.244 1.211.7-.408-.706-2.7-2.072-2.394-1.039a7.43 7.43 0 0 0-.648-.272c-.549-.541-.708.294-.628.294z" class="cls-6" data-name="Path 2968" transform="translate(-237.118 -345.839)"/>
                <path id="Path_2969" d="M293.736 349.661l-.115.018c.092.036.123.021.115-.018z" class="cls-6" data-name="Path 2969" transform="translate(-241.096 -346.24)"/>
                <path id="Path_2970" d="M292.9 348.316c1.084-.139.329.8 1.8-.371-.355-.857-2.715-.305-2.41-.036.02-.25.578.26.61.407z" class="cls-6" data-name="Path 2970" transform="translate(-240.258 -344.895)"/>
                <path id="Path_2971" d="M286.879 351.139c-.065-.246-.192-.3-.314-.478 0 0 0-.013.009-.029a.057.057 0 0 0-.011.026l-.007-.01c-.147.111.135.435.323.491z" class="cls-6" data-name="Path 2971" transform="translate(-236.705 -346.84)"/>
                <path id="Path_2972" d="M286.592 350.632c0 .007.027.036 0 0z" class="cls-6" data-name="Path 2972" transform="translate(-236.753 -346.84)"/>
                <path id="Path_2973" d="M272.525 386.857a1.492 1.492 0 0 0-.9 1.485c.005 1.175 2.234-1.485.9-1.485z" class="cls-6" data-name="Path 2973" transform="translate(-227.508 -369.223)"/>
                <path id="Path_2974" d="M277.578 383.894s.002.006 0 0z" class="cls-6" data-name="Path 2974" transform="translate(-231.183 -367.392)"/>
                <path id="Path_2975" d="M274.616 383.5a1.383 1.383 0 0 1 .331 1.389v-.057c-.083.05-.042.172-.016.113a4.617 4.617 0 0 0-.131 1.078c0 .007.377.188.547.079a50.33 50.33 0 0 0-.606.687c3.034-.317 1.172-1.608.945-3.537a2.349 2.349 0 0 1-.653-.4c-.346.238-.684.588-.417.648z" class="cls-6" data-name="Path 2975" transform="translate(-229.294 -366.754)"/>
                <path id="Path_2976" d="M264.4 372.77a3.342 3.342 0 0 0-2.637-.695q.046.2-.2.07c.026.177 1.314.46.029.46.296.356 2.039 1.783 2.808.165z" class="cls-6" data-name="Path 2976" transform="translate(-221.287 -360.088)"/>
                <path id="Path_2977" d="M219.83 421.816c-.671-.336-2.231-1.942-2.922-.541a3.452 3.452 0 0 1 .488.06c.859.144 2.424.503 2.434.481z" class="cls-6" data-name="Path 2977" transform="translate(-193.696 -390.14)"/>
                <path id="Path_2978" d="M218.183 422.422z" class="cls-6" data-name="Path 2978" transform="translate(-194.484 -391.198)"/>
                <path id="Path_2980" d="M226.28 424.335l-.216-.212c-1.389-.833-.681.176-1.456.176 0 .331 1.303.138 1.672.036z" class="cls-6" data-name="Path 2980" transform="translate(-198.454 -392.045)"/>
                <path id="Path_2981" d="M222.445 445.713c-.252 2.22-1 4.924-.935 6.013a17.749 17.749 0 0 0 .544 2.214 1.636 1.636 0 0 1 .518-.083h.877c-.041-1.6.816-3.628.816-4.151 0-.363 1.87-1.225 1.87-2.676 0 .773 8.923-9.5 6.376-10.448a10.69 10.69 0 0 0-3.828-.942c.743 0-3.135-4.845-3.651-4.374-.754-.132-1.548-.357-2.253-.448a4.934 4.934 0 0 0-.271 1.005c-.446 0 .14-1.122-.064-1.122-.789 0-1.248 1.05-1.686 1.435-.014.018-.09-.019-.208-.1.561.756-.8 4.478-.747 4.825.532 3.876 3.156 4.315 2.642 8.852z" class="cls-6" data-name="Path 2981" transform="translate(-195.484 -396.316)"/>
                <path id="Path_2982" d="M231.089 400.552s-.004 0 0 0z" class="cls-6" data-name="Path 2982" transform="translate(-202.456 -377.682)"/>
                <path id="Path_2983" d="M221.334 433.889c.061.047.115.086.163.119a.314.314 0 0 0-.163-.119z" class="cls-6" data-name="Path 2983" transform="translate(-196.431 -398.283)"/>
                <path id="Path_2984" d="M178.773 386.155c-1.215 0-2.555 2.529-3.031-.519-.361-2.315 1.272-1.677 2.313-2.3q.165-.447-.157-.378c1.889-.791 1.661 1.851 2.548 1.851.078 0 1.094-4.484 1.3-5.129-.043-.243.127.59.148.59-.036 0 .579-1.285.965-1.45-.433-.374.045-.1.708-.3q.032-.173-.108 0c-.318 0 1.152-1.52 1.722-1.52q-.921.269-.389.762c.011-.059 1.186-.783 1.186-.8 0-.309-.788-1.1-.788-1.473a1.077 1.077 0 0 0-1.436.236 1.3 1.3 0 0 1 1.255-.778c.034.125.659.631.771.4a4.365 4.365 0 0 0-.676-.408c.794-.052 1.669.081 1.984-.624.945-2.113-.579-.311-.865-.961.754-.5-.341-2.133-1.25-3.23a4.393 4.393 0 0 1-.787.943c-1.5 0-.944-3.135-3-1.476.106-.086-.271 5.129-.574 4.836-.527-.506-3.434-2.744-3.517-2.882-.632-1.057.462-2.919.051-3.2 1.651.672.8-.955.711-1.165.256.048 2.582-.1 2.327-1-.778-2.741-1.445.418-1.73.1-.213-.235.159-1.053-.371-1.053q-.188.261-.393.508c0-.312-.822-2.05-1.28-2.064-.724-.021-.1 2.075.374 1.793a5.358 5.358 0 0 1-.522.825c.091-.029-3.72-1.16-3.72-.553.131.2.3.216.519.061-.215.23-.57.705-.262.705-1.822 0-2.681-1.349-4.694-1.71-1.347-.241-2.914.619-4.486.224v1.239c-.211-1.063-.933-1.582-3.1-1.793-1.663-.162-2.4-.177-4.058 1.387.086 0 1.4 1.295 1.4 1.3-1.232.372.05-1.013-1.7.247.407.986 1.055.4 1.9.519-2.1 1.475-.768 3.562 1.4 2.972a14.325 14.325 0 0 0-2.509 2.169c1.252.427 3.566-2.566 4.084-3.29a.579.579 0 0 1-.161.363c1.3-.541 5.76 1.867 5.76 2.4 0 .02.62 1.357 1.13 2.487-.243-.183-.49-.315-.627-.235.129.068.547.345.5.532.149.112.283.228.4.317.2.441.342.784.377.9.368 1.206 1.815 9.15 3.927 9.15.152 0-1.637-2.976-1.437-3.289 2.843 3.4 6.6 8.1 10.057 8.1a.359.359 0 0 1 .107.015c-.907-.688-3.074-2.846-2.296-4.351zm4.588-9.325a.408.408 0 0 0-.035.054v-.006a.555.555 0 0 0 .035-.048zm-.035.054a.405.405 0 0 0-.026.059.364.364 0 0 1 .026-.059zm-1.233.314c.056-.065.1-.118.122-.137.079-.07-.705.806-.123.139zm-1.243.586c2.322-.88-.617.275 0 0zm-.01.4a1.167 1.167 0 0 1-.175.107l.016-.011-.028.016a1.883 1.883 0 0 1 .187-.111zm-.2-.979c0-.19-.6.205-.774.474-.126-.328-.2-.851-.535-.851-.652 0-.3 1.71-.66 1.71-.8 0 .613-1.816-.216-1.238a.941.941 0 0 1 .8-.59c-1.036-.083-2.19-.113-1.224-.884-.088 0-.561-.155-.94-.262 1.146-.009 3.552.463 3.552 1.642zm-4.163-1.77zm-10.536-3.857a1.241 1.241 0 0 0 .2.42.569.569 0 0 1-.197-.418zm8.826 11.594l-.028-.024zm-1.741-.843a.829.829 0 0 1 .627.477.829.829 0 0 0-.624-.475zm1.508.721a.519.519 0 0 0-.093-.009.5.5 0 0 1 .096.011zm.159.063l-.023-.013zm-.077-.039l-.034-.011a.354.354 0 0 1 .037.013zm.179.126a.946.946 0 0 1 .188.319 1.1 1.1 0 0 0-.183-.319z" class="cls-6" data-name="Path 2984" transform="translate(-156.161 -354.904)"/>
                <path id="Path_2985" d="M156.934 369.386s0-.003 0 0z" class="cls-6" data-name="Path 2985" transform="translate(-156.639 -358.425)"/>
                <path id="Path_2986" d="M216.608 397.778c.092.007.183.015.272.024a1.072 1.072 0 0 0-.272-.024z" class="cls-6" data-name="Path 2986" transform="translate(-193.51 -375.97)"/>
                <path id="Path_2987" d="M167.569 381.143c0-.211.2-.373.351-.556a.549.549 0 0 0-.351.556z" class="cls-6" data-name="Path 2987" transform="translate(-163.21 -365.349)"/>
                <path id="Path_2988" d="M179.832 384.349c.074-.62-.35.212 0 0z" class="cls-6" data-name="Path 2988" transform="translate(-170.701 -367.529)"/>
                <path id="Path_2989" d="M187.322 360.974c.227.456.874.13 1.44-.293a2 2 0 0 0-.013.234c0 .929.895.231 1.771.826a3.247 3.247 0 0 0-1.279.294c.79 1.626 4.266.083 4.28.083.351 0-1.223-2.559-1.013-2.559-.561 0-.858 1.164-.694 1.353a6.074 6.074 0 0 0-2.205-.974.845.845 0 0 0 .124-.142c0-.563-2.138-.818-2.538-.626.074.971-.295 1.114.127 1.804z" class="cls-6" data-name="Path 2989" transform="translate(-175.288 -352.076)"/>
                <path id="Path_2990" d="M192.419 355.856c0 .384 3.444.9 3.444-.294a11.585 11.585 0 0 0-1.053-.826c-.308.3-.259.79-.01.79a16.052 16.052 0 0 1-1.8-.352 1.576 1.576 0 0 0-.581.682zm.856-.424c-.033 0-.09-.015-.152-.028a1.278 1.278 0 0 1 .152.028z" class="cls-6" data-name="Path 2990" transform="translate(-178.564 -349.375)"/>
                <path id="Path_2991" d="M188.874 354.7c.609 0 1.7-.121 1.7-.92.002-.457-2.733.92-1.7.92z" class="cls-6" data-name="Path 2991" transform="translate(-176.23 -348.728)"/>
                <path id="Path_2992" d="M195.987 351.6c-.286.242 1.837-.412.275-.412-.436 0-1.055.412-.275.412z" class="cls-6" data-name="Path 2992" transform="translate(-180.539 -347.183)"/>
                <path id="Path_2993" d="M196.361 352.681q.709-.052.246-.259c-1.039 0-.539.42-.246.259z" class="cls-6" data-name="Path 2993" transform="translate(-180.765 -347.946)"/>
                <path id="Path_2994" d="M205.248 361.227c0-1.339-1.219-.282-1.447.024 1.407 1.682 1.459-.021 1.447-.024z" class="cls-6" data-name="Path 2994" transform="translate(-185.597 -352.977)"/>
                <path id="Path_2995" d="M204.671 356.086a1.063 1.063 0 0 0 .708 0c-.054-.451-.025-1.524-.935-1.049q.461.031.345.425h-.149a1.691 1.691 0 0 1 .346.217c-.112.129-.315.196-.315.407z" class="cls-6" data-name="Path 2995" transform="translate(-185.994 -349.488)"/>
                <path id="Path_2996" d="M204.19 356.1a.438.438 0 0 0 .293.089 1.146 1.146 0 0 0-.293-.089z" class="cls-6" data-name="Path 2996" transform="translate(-185.838 -350.216)"/>
                <path id="Path_2997" d="M203.154 355.579c-.117-.122.068-.32-.641-.32.208.32.379.276.641.32z" class="cls-6" data-name="Path 2997" transform="translate(-184.801 -349.699)"/>
                <path id="Path_2998" d="M207.208 367.5q-.524-1.113-.886-.224c-.449.13.559.456.886.224z" class="cls-6" data-name="Path 2998" transform="translate(-187.085 -356.878)"/>
                <path id="Path_2999" d="M209.264 359.675c-.724 0-.344.991-.344 1.414.368-.2 2.371-1.414.344-1.414z" class="cls-6" data-name="Path 2999" transform="translate(-188.698 -352.427)"/>
                <path id="Path_3000" d="M201.741 357.661c.64-.089.109-.562 0 0z" class="cls-6" data-name="Path 3000" transform="translate(-184.324 -351.015)"/>
                <path id="Path_3001" d="M203.384 351.381c0-1.051-1.719-.731-1.653-.731-.131.616 1.653.55 1.653.731z" class="cls-6" data-name="Path 3001" transform="translate(-184.314 -346.822)"/>
                <path id="Path_3002" d="M212.914 356.346c-.227-.012-.093-.084 0-.141-.157-.348-3.914-.481-4.684-.9a14.919 14.919 0 0 0 2.027 1.258c.448.064 2.605.502 2.657-.217z" class="cls-6" data-name="Path 3002" transform="translate(-188.334 -349.725)"/>
                <path id="Path_3003" d="M207.87 354.889c0 .057.05.109.138.157-.087-.071-.138-.127-.138-.157z" class="cls-6" data-name="Path 3003" transform="translate(-188.111 -349.47)"/>
                <path id="Path_3004" d="M208.886 357.318c0-.816-.836-.194-.836.06.225.207.836.551.836-.06z" class="cls-6" data-name="Path 3004" transform="translate(-188.223 -350.72)"/>
                <path id="Path_3005" d="M207.694 351.251c0-.182-1.553-.98-.59.177-.104.043.59.417.59-.177z" class="cls-6" data-name="Path 3005" transform="translate(-187.443 -346.952)"/>
                <path id="Path_3006" d="M210.049 344.359a.961.961 0 0 0-.747.235c0 .9 1.683.309 2.188-.1a7.26 7.26 0 0 0-.515.715c.26-.433.869.545.837.507-.131.016-1.034-.516-1.034-.211 0 .076.042.919-.295.919.184 0 3.2.327 3.2-.236 0-.436.577-1.533.61-1.863a7.2 7.2 0 0 1 2.324-1.108.962.962 0 0 0-.061.342.857.857 0 0 0 .739.236c0 1.125-2.136.5-2.136 1.3 0 .7 1.5.368 1.821.39-.126.559-1.341.039-1.408.589.107.048 2.2.479 2.165.436.93 1.083 2.451 3.2 3.473 3.6-.057.439-.611-.118-.866 0a1.551 1.551 0 0 0 1.063.507c-.408 1.527-1.15 5.424 1.939 5.424.168 0 .958-3.006 1.7-3.361.618-.352 3.342-1.306 4.28-2.2a1.408 1.408 0 0 1-1.083-.389q.386-.117.118-.448c.06.044 1.181.852 1.181.448 0-.629-.772-1.014-.984-1.474q.461-.045.67.531c.552 0-.243-.788-.376-.863 1.79-.177.77-.773.77-2.026 0-.426.886.1.886-.353 0-.543-.6-.524-.935-.708a24.593 24.593 0 0 1 2.46-2.747c0-1.439-3.416.942-3.42.943 0-.016 1.12-1.378.419-1.378q-.593.31-1.157.672a4.748 4.748 0 0 1 .37-.591 18.453 18.453 0 0 1-1.993 0c.4 0 3.055.141 3.145-.613-2.013-.575-5.221-1.29-7.154-.177.344.572-.921.024.364.79-.575-.107-4.524-.383-5.713.732a.72.72 0 0 0-.161-.284 2.9 2.9 0 0 0 1.643-.624c0-2.076-7.988.5-8.264.567.211.509.05-.1.786.105-1.57.572.158.011-.413.494.389.594 2.211.157 2.706.071-.475.71-1.406-.067-.71.763-.291-.072-1.23-.189-1.207-.223-.284.059.294.383.483.579a.33.33 0 0 0-.145.1c-.112.126-.765-.731-.9-.879a11.8 11.8 0 0 0-1.583-.763.812.812 0 0 0 .031.192 1.492 1.492 0 0 0-.277.162.269.269 0 0 0 .4.188c-.02.024-1.027.508-.256.508-1.022-.015.443.388 1.022.574z" class="cls-6" data-name="Path 3006" transform="translate(-188.608 -340.707)"/>
                <path id="Path_3007" d="M213.974 347.947l.008.01c.046.024.05.024-.008-.01z" class="cls-6" data-name="Path 3007" transform="translate(-191.883 -345.181)"/>
                <path id="Path_3008" d="M216.367 372.849a.538.538 0 0 0 .021.058c.012-.039.004-.062-.021-.058z" class="cls-6" data-name="Path 3008" transform="translate(-193.362 -360.567)"/>
                <path id="Path_3009" d="M216.448 373.863c-.3-.295-.838-.521-.982-.861-.05.232-.585 1.082-.592 1.215q.487-.2.491.235c.559.001 1.507-.207 1.083-.589z" class="cls-6" data-name="Path 3009" transform="translate(-192.439 -360.662)"/>
                <path id="Path_3010" d="M218.043 377.015c-.129.915.2-.013 0 0z" class="cls-6" data-name="Path 3010" transform="translate(-194.378 -363.141)"/>
                <path id="Path_3011" d="M216.29 360.529h.029c.026-.064.009-.054-.029 0z" class="cls-6" data-name="Path 3011" transform="translate(-193.314 -352.927)"/>
                <path id="Path_3012" d="M221.151 364.9c0-.452-2.468-2.606-2.677-2.688.236-1.623-4.319-.656-4.371-.494-.244-.14.171-.925.308-1.121-1.99.016-.738 1.562-1.1 1.732.048.4 1.875.789 2.893 1.055-.083.079-.142.182-.07.182a.222.222 0 0 0 .187-.151 1.658 1.658 0 0 1 .541.2c1.881 2.295-.433.705-.433 2.252 0-.3 2.953 1.591 3.326 1.591q.467-.526-.62-.967c.39.017.644.413 1.063.472.209-.705-.709-1.806-.866-1.91.426 0 .767.673 1.18.673-.131.004.639-.889.639-.826z" class="cls-6" data-name="Path 3012" transform="translate(-191.435 -353)"/>
                <path id="Path_3013" d="M221.44 376.319c.1.094.128.094.227 0-.118-.071-.128-.154-.227 0z" class="cls-6" data-name="Path 3013" transform="translate(-196.496 -362.658)"/>
                <path id="Path_3014" d="M217.14 372.665a.194.194 0 0 0 .2.188c-.073-.105-.073-.253-.2-.188z" class="cls-6" data-name="Path 3014" transform="translate(-193.838 -360.443)"/>
                <path id="Path_3015" d="M212.417 345.326c-.011.002-.01.003 0 0z" class="cls-6" data-name="Path 3015" transform="translate(-190.916 -343.56)"/>
                <path id="Path_3016" d="M215.47 348.484a.58.58 0 0 1 .116-.01.3.3 0 0 0-.116.01z" class="cls-6" data-name="Path 3016" transform="translate(-192.807 -345.506)"/>
                <path id="Path_3017" d="M239.234 366.7c.482-1.251-.182-.025 0 0z" class="cls-6" data-name="Path 3017" transform="translate(-207.471 -356.418)"/>
                <path id="Path_3018" d="M235.6 393.283a7.43 7.43 0 0 1 1.654.431 14.758 14.758 0 0 1-.66-1.987 3.938 3.938 0 0 0-.994 1.556z" class="cls-6" data-name="Path 3018" transform="translate(-205.249 -372.23)"/>
                <path id="Path_3019" d="M239.934 396.933a.262.262 0 0 0 .018.04c.048 0 .037-.015-.018-.04z" class="cls-6" data-name="Path 3019" transform="translate(-207.923 -375.449)"/>
                <path id="Path_3020" d="M181.422 388.918c.19.337.345.975.345.378 0-.383-.184-.446-.345-.378z" class="cls-6" data-name="Path 3020" transform="translate(-171.769 -370.481)"/>
                <path id="Path_3021" d="M289.071 406c-.823-.2-.739.486 0 0z" class="cls-6" data-name="Path 3021" transform="translate(-237.922 -381.029)"/>
                <path id="Path_3022" d="M285.346 401.709c.5-1.2-.631-.148 0 0z" class="cls-6" data-name="Path 3022" transform="translate(-235.861 -378.049)"/>
                <path id="Path_3023" d="M296.948 408.779c-1.287-.454-.32.208 0 0z" class="cls-6" data-name="Path 3023" transform="translate(-242.75 -382.668)"/>
                <path id="Path_3024" d="M303.115 408.488c-1.3.266-.083.507 0 0z" class="cls-6" data-name="Path 3024" transform="translate(-246.595 -382.588)"/>
                <path id="Path_3025" d="M330.451 360.783c-.542-.523-.508.5 0 0z" class="cls-6" data-name="Path 3025" transform="translate(-263.609 -353.017)"/>
                <path id="Path_3026" d="M234.591 397.581c-.622-.43 0 .152 0 0z" class="cls-6" data-name="Path 3026" transform="translate(-204.451 -375.749)"/>
            </g>
            <g id="Group_620" data-name="Group 620" transform="translate(33.4 30.678)">
                <g id="Group_612" data-name="Group 612" transform="translate(23.863)">
                    <g id="Group_600" data-name="Group 600" transform="translate(16.538 78.794)">
                        <path id="Path_3027" d="M328.708 566.733a9.447 9.447 0 0 1-3.878 1.783c-.593.151-1.233-.051-1.233.928h3.271l2.721-.47v.47h1.47s.409-2.4-.449-2.711z" class="cls-3" data-name="Path 3027" transform="translate(-323.597 -565.007)"/>
                        <path id="Path_3028" d="M337.138 562.215l-.165 1.726a1.662 1.662 0 0 0 1.8.06l.1-.06.611-1.726z" class="cls-7" data-name="Path 3028" transform="translate(-331.862 -562.215)"/>
                    </g>
                    <g id="Group_601" data-name="Group 601" transform="translate(29.612 78.794)">
                        <path id="Path_3029" d="M362.924 566.733a9.447 9.447 0 0 1-3.878 1.783c-.593.151-1.233-.051-1.233.928h3.271l2.721-.47v.47h1.47s.409-2.4-.449-2.711z" class="cls-8" data-name="Path 3029" transform="translate(-357.813 -565.007)"/>
                        <path id="Path_3030" d="M371.354 562.215l-.165 1.726a1.662 1.662 0 0 0 1.8.06l.1-.06.611-1.726z" class="cls-7" data-name="Path 3030" transform="translate(-366.078 -562.215)"/>
                    </g>
                    <path id="Path_3031" d="M342.385 449.148h-3.764l-1.321 43.617h2.543l7.471-35.5z" class="cls-3" data-name="Path 3031" transform="translate(-315.526 -413.559)"/>
                    <path id="Path_3032" d="M347.415 449.148l8.8 43.617h2.8l-1.148-43.617z" class="cls-8" data-name="Path 3032" transform="translate(-321.776 -413.559)"/>
                    <g id="Group_607" data-name="Group 607" transform="translate(29.468 43.975)">
                        <g id="Group_602" data-name="Group 602" transform="translate(3.48)">
                            <path id="Path_3033" d="M366.545 473.493l.844-.06a1.484 1.484 0 0 1 .392-1.028 2.118 2.118 0 0 1 1.56-.5 2.376 2.376 0 0 1 1.683.5 1.017 1.017 0 0 1 .308.71l.844.048a1.789 1.789 0 0 0-.525-1.3 3.119 3.119 0 0 0-2.311-.763 2.92 2.92 0 0 0-2.186.767 2.269 2.269 0 0 0-.609 1.626z" class="cls-9" data-name="Path 3033" transform="translate(-366.542 -471.093)"/>
                        </g>
                        <g id="Group_605" data-name="Group 605" transform="translate(0 1.642)">
                            <path id="Rectangle_158" d="M0 0h12.595v8.104H0z" class="cls-10" data-name="Rectangle 158" transform="rotate(180 6.298 4.921)"/>
                            <g id="Group_604" data-name="Group 604">
                                <g id="Group_603" data-name="Group 603">
                                    <path id="Path_3034" d="M363.272 489.8c0 .494.235.551.525.551s.525-.056.525-.551v-1.72a32.607 32.607 0 0 0 5.707-1.022v6.393c0 .571-.221 1.034-.556 1.034h-11.482c-.335 0-.556-.463-.556-1.034v-6.371a37.762 37.762 0 0 0 5.837.989z" class="cls-11" data-name="Path 3034" transform="translate(-357.435 -482.602)"/>
                                    <path id="Path_3035" d="M357.991 475.39h11.483c.335 0 .556.463.556 1.034v3.1a19.512 19.512 0 0 1-5.707.97v-.42c0-.494-.235-.551-.525-.551s-.525.056-.525.551v.418a20.108 20.108 0 0 1-5.837-.969v-3.1c-.001-.57.22-1.033.555-1.033z" class="cls-9" data-name="Path 3035" transform="translate(-357.435 -475.39)"/>
                                </g>
                            </g>
                        </g>
                        <g id="Group_606" data-name="Group 606" transform="translate(5.673 6.976)">
                            <path id="Path_3036" d="M372.281 491.063v-.532a.228.228 0 0 1 .228-.228h.911a.228.228 0 0 1 .228.228v.532a.228.228 0 0 1-.228.228h-.911a.228.228 0 0 1-.228-.228zm.228-.7a.163.163 0 0 0-.163.163v.532a.163.163 0 0 0 .163.163h.911a.163.163 0 0 0 .163-.163v-.532a.163.163 0 0 0-.163-.163z" class="cls-9" data-name="Path 3036" transform="translate(-372.281 -489.938)"/>
                            <path id="Path_3037" d="M373.916 490.147a.057.057 0 0 0 .058.055.057.057 0 0 0 .059-.055v-.747a.057.057 0 0 0-.059-.055.057.057 0 0 0-.058.055z" class="cls-9" data-name="Path 3037" transform="translate(-373.291 -489.349)"/>
                        </g>
                    </g>
                    <g id="Group_608" data-name="Group 608" transform="translate(0 29.732)">
                        <path id="Path_3038" d="M285 435.328a3.324 3.324 0 0 1-1.778.515c-1.047.087-3.276-.369-2.851.665 1 .541 2.114 1.3 2.114 1.3a3.678 3.678 0 0 0 2.443-.317l1.953-1.192s.168-1.1.185-1.148l-.447-.182a5.381 5.381 0 0 1-1.619.359z" class="cls-12" data-name="Path 3038" transform="translate(-280.317 -434.527)"/>
                        <path id="Path_3039" d="M288.767 435.08a.829.829 0 0 1-.116.125c.139.056.273.119.4.186.548.015 1.1.047 1.644.067-.034-.316-.08-.76-.078-.792l-3.561-.848s-.288.375.363.779a3.638 3.638 0 0 0 1.348.483z" class="cls-12" data-name="Path 3039" transform="translate(-284.444 -433.819)"/>
                    </g>
                    <path id="Path_3040" d="M371.291 461.572l-1.184 2.6a5.07 5.07 0 0 0 .778 1.988.558.558 0 0 0 .62.125 7 7 0 0 0 1.819-.967.534.534 0 0 0 .058-.464l-.345-1.146-.043-2.672z" class="cls-12" data-name="Path 3040" transform="translate(-335.797 -420.906)"/>
                    <g id="Group_610" data-name="Group 610" transform="translate(25.219)">
                        <path id="Path_3041" d="M354.9 377.168l-.039 3.487 3.107-.167.2-5.406z" class="cls-7" data-name="Path 3041" transform="translate(-351.596 -367.795)"/>
                        <g id="Group_609" data-name="Group 609" transform="translate(1.226 1.876)">
                            <path id="Path_3042" d="M351.085 368.739a1.875 1.875 0 0 1-1.047-.249c-1.252-1.821.174-6.729.174-6.729l2-.843 2.543 1.586.145 3.289a2.669 2.669 0 0 1-1.135 2.269 5.212 5.212 0 0 1-2.68.677z" class="cls-7" data-name="Path 3042" transform="translate(-349.523 -360.918)"/>
                        </g>
                        <path id="Path_3043" d="M351.214 375.121c-.643.34-1.452.512-1.8.11" class="cls-13" data-name="Path 3043" transform="translate(-348.232 -367.818)"/>
                        <ellipse id="Ellipse_155" cx=".209" cy=".191" data-name="Ellipse 155" rx=".209" ry=".191" transform="translate(1.982 4.982)"/>
                        <path id="Path_3044" d="M352.068 361.335c-.139-.553.238-1.828-.324-1.736-.411.067-1.817.125-2.29.125-1.128 0-3.138-.441-3.138-2.158a1.562 1.562 0 0 1 1.054-1.513c.517-.216 1.1.405 1.631.59a14.046 14.046 0 0 0 4.462.65 1.518 1.518 0 0 1 1.582 1.06 7.345 7.345 0 0 1-1.033 3.47 5.268 5.268 0 0 1-1.126 1.474z" class="cls-14" data-name="Path 3044" transform="translate(-346.315 -356.009)"/>
                        <path id="Path_3045" d="M362.986 370.042a.849.849 0 0 0-1.051.094c-.329.274-.392.676-.14.9a.849.849 0 0 0 1.051-.094c.329-.276.391-.678.14-.9z" class="cls-7" data-name="Path 3045" transform="translate(-355.784 -364.592)"/>
                    </g>
                    <path id="Path_3046" d="M319.63 386.8a8.953 8.953 0 0 1 3.646.747 8.771 8.771 0 0 1 4.912 6.069c.988 4.2 2.645 14.156-1.154 22.886a18.918 18.918 0 0 1-2.543 0l-.407-20.58.288 14.7H312.59v-9.48s-.305 2.141-3.153 4.118-14.268 2.171-14.268 2.171v-2.228s10.1-3.475 11.623-4.633 4.821-9.5 4.821-9.5a7.528 7.528 0 0 1 5.154-4 14.194 14.194 0 0 1 2.863-.27z" class="cls-15" data-name="Path 3046" transform="translate(-289.494 -375.037)"/>
                    <g id="Group_611" data-name="Group 611" transform="translate(32.909 21.358)">
                        <path id="Path_3047" d="M366.719 426.079l-.277-14.166.305-.009.28 14.174z" class="cls-6" data-name="Path 3047" transform="translate(-366.442 -411.905)"/>
                    </g>
                    <path id="Path_3048" d="M357.682 384.2l.192 1.145-3.571-.007.234-1.139z" class="cls-15" data-name="Path 3048" transform="translate(-326.032 -373.431)"/>
                </g>
                <g id="Group_619" data-name="Group 619" transform="translate(0 6.464)">
                    <path id="Path_3049" d="M241.371 408.294s.109 13.02 3.5 12.865 5.629-10.435 5.629-10.435l-1.375-.4-3.294 6.218a13.9 13.9 0 0 0-.342-5.756 3.011 3.011 0 0 0-4.118-2.492z" class="cls-12" data-name="Path 3049" transform="translate(-232.39 -394.657)"/>
                    <g id="Group_613" data-name="Group 613" transform="translate(6.118 12.363)">
                        <path id="Path_3050" d="M237.393 405.28l-.155.234c.038.025 3.781 2.541 3.781 6.648V428.9h-6.856l.218-12.891a7.561 7.561 0 0 1-.285.214l-.219 12.958h7.423v-17.019c0-4.257-3.868-6.857-3.907-6.882z" class="cls-6" data-name="Path 3050" transform="translate(-233.878 -405.28)"/>
                    </g>
                    <g id="Group_614" data-name="Group 614" transform="translate(5.397 32.926)">
                        <rect id="Rectangle_159" width="8.956" height="6.682" class="cls-11" data-name="Rectangle 159" rx="3.341"/>
                        <path id="Path_3051" d="M240.949 462.3v-2.04a1.169 1.169 0 0 0-1.166-1.166h-6.624a1.169 1.169 0 0 0-1.166 1.166v2.04z" class="cls-10" data-name="Path 3051" transform="translate(-231.993 -459.094)"/>
                        <path id="Path_3052" d="M251.241 465.776c-.559 0-1.016-.24-1.016-.8v-5.086c0-.559.457-.8 1.016-.8a1.009 1.009 0 0 1 1.015.8v4.869a.9.9 0 0 1-1.015 1.017z" class="cls-6" data-name="Path 3052" transform="translate(-243.258 -459.094)"/>
                        <path id="Path_3053" d="M240.46 466.841a.309.309 0 0 1-.308-.308v-1.553a.309.309 0 0 1 .308-.308.309.309 0 0 1 .308.308v1.553a.309.309 0 0 1-.308.308z" class="cls-6" data-name="Path 3053" transform="translate(-237.034 -462.54)"/>
                    </g>
                    <path id="Path_3054" d="M260.528 407.778l-.609-2.479a4.533 4.533 0 0 1 1.011-1.616.5.5 0 0 1 .565-.008 6.262 6.262 0 0 1 1.436 1.149.476.476 0 0 1-.026.417l-.491.949-.45 1.752z" class="cls-12" data-name="Path 3054" transform="translate(-243.851 -391.873)"/>
                    <g id="Group_617" data-name="Group 617">
                        <path id="Path_3055" d="M227.492 400.077c2.4 0 2.96.351 2.96.351a37.825 37.825 0 0 1 4.148 6.272 3.529 3.529 0 0 1-.016 2.887c-1.888 4.07-1.648 11.906-1.648 11.906h-7.006c.309-5.836-5.719-20.308 1.562-21.416z" class="cls-15" data-name="Path 3055" transform="translate(-221.582 -389.702)"/>
                        <path id="Path_3056" d="M237.136 471.4l-1.246-15.268h-2.964l-3.588 4.261a29.54 29.54 0 0 0-.272 11.007z" class="cls-3" data-name="Path 3056" transform="translate(-224.538 -424.34)"/>
                        <g id="Group_616" data-name="Group 616" transform="translate(3.498)">
                            <path id="Path_3057" d="M237.557 391.422l.006 4.6-2.758-3.007.3-4.278z" class="cls-7" data-name="Path 3057" transform="translate(-231.831 -382.692)"/>
                            <path id="Path_3058" d="M233.207 374.939c-1.911.26-2.861 2.709-2.861 2.709l.021 7.249-3.313-2.865a25.83 25.83 0 0 1 .577-6.834c.709-2.244 3.569-2.835 5.576-1.74a4.462 4.462 0 0 1 1.9 2.615 8.264 8.264 0 0 1 .2 4.327l-1.136 5.319-1.415-1.4a5.783 5.783 0 0 1-.006-2.664c.726-2.671 1.74-6.89.457-6.716z" class="cls-14" data-name="Path 3058" transform="translate(-227.022 -372.925)"/>
                            <path id="Path_3059" d="M234.037 385.338a.676.676 0 0 1 .9.088.582.582 0 0 1 .12.838.675.675 0 0 1-.9-.087.582.582 0 0 1-.12-.839z" class="cls-7" data-name="Path 3059" transform="translate(-231.275 -380.513)"/>
                            <g id="Group_615" data-name="Group 615" transform="translate(3.269 1.488)">
                                <path id="Path_3060" d="M238.831 384.121a1.489 1.489 0 0 0 .892-.232c1.067-1.7-.148-6.284-.148-6.284l-1.705-.787-2.17 1.482-.123 3.072a2.58 2.58 0 0 0 .968 2.119 4.141 4.141 0 0 0 2.286.63z" class="cls-7" data-name="Path 3060" transform="translate(-235.578 -376.818)"/>
                            </g>
                            <path id="Path_3061" d="M237.469 376.258c.408 1.37-3.222 2.96-3.222 2.96l-.912-1.71 1.665-2.043 2.107.337a1.213 1.213 0 0 1 .362.456z" class="cls-14" data-name="Path 3061" transform="translate(-230.923 -374.494)"/>
                            <path id="Path_3062" d="M244.2 377.836c.076.54.919 1.2.919 1.2l.079-.646-.192-.454-.433-.24s-.449-.396-.373.14z" class="cls-14" data-name="Path 3062" transform="translate(-237.631 -375.784)"/>
                            <circle id="Ellipse_156" cx=".144" cy=".144" r=".144" data-name="Ellipse 156" transform="translate(5.413 5.022)"/>
                            <circle id="Ellipse_157" cx=".144" cy=".144" r=".144" data-name="Ellipse 157" transform="translate(6.877 5.022)"/>
                            <path id="Path_3063" d="M242.967 390.9c0 .235-.378.422-.848.422s-.848-.191-.848-.422" class="cls-13" data-name="Path 3063" transform="translate(-235.827 -384.03)"/>
                        </g>
                        <path id="Path_3064" d="M226.075 471.4a133.51 133.51 0 0 0 2.432-15.268h-6.293s-5.368 2.25-4.173 15.268z" class="cls-8" data-name="Path 3064" transform="translate(-217.867 -424.34)"/>
                    </g>
                    <g id="Group_618" data-name="Group 618" transform="translate(24.003 22.964)">
                        <path id="Path_3065" d="M282.241 435.1a2.416 2.416 0 0 0 1.411.07c.788-.129 2.336-.909 2.232-.015a21.87 21.87 0 0 0-1.294 1.419 2.632 2.632 0 0 1-1.861.212l-1.677-.569s-.345-.832-.368-.869l.292-.228a3.864 3.864 0 0 0 1.265-.02z" class="cls-7" data-name="Path 3065" transform="translate(-280.684 -434.076)"/>
                        <path id="Path_3066" d="M283.35 434.338a.68.68 0 0 0 .111.077c-.091.07-.177.145-.26.222-.4.115-.8.243-1.2.363a42.775 42.775 0 0 0-.1-.638l2.449-1.34s.288.241-.11.681a2.647 2.647 0 0 1-.89.635z" class="cls-7" data-name="Path 3066" transform="translate(-281.437 -433.023)"/>
                    </g>
                    <path id="Path_3067" d="M226.5 405.92c2.509-2.587 7.293 3.811 9.009 5.7a3.626 3.626 0 0 0 1.129.836l11.471 4.463-.721 1.186-12.649-2.71a4.928 4.928 0 0 1-1.394-.622c-2.385-1.554-9.339-6.273-6.845-8.853z" class="cls-7" data-name="Path 3067" transform="translate(-222.875 -392.937)"/>
                </g>
            </g>
            <g id="Group_622" data-name="Group 622" transform="translate(42.583)">
                <path id="Path_3068" d="M256.885 275.724c-8.277 0-14.986 5.773-14.986 12.894a12.313 12.313 0 0 0 5.684 10.109l-5.1 10.327 14.406-7.542c8.277 0 14.986-5.773 14.986-12.894s-6.713-12.894-14.99-12.894z" class="cls-8" data-name="Path 3068" transform="translate(-241.899 -275.724)"/>
                <g id="Group_621" data-name="Group 621" transform="translate(4.436 11.064)">
                    <circle id="Ellipse_158" cx="1.896" cy="1.896" r="1.896" class="cls-16" data-name="Ellipse 158"/>
                    <circle id="Ellipse_159" cx="1.896" cy="1.896" r="1.896" class="cls-16" data-name="Ellipse 159" transform="translate(8.344)"/>
                    <circle id="Ellipse_160" cx="1.896" cy="1.896" r="1.896" class="cls-16" data-name="Ellipse 160" transform="translate(16.842)"/>
                </g>
            </g>
            <g id="Group_624" data-name="Group 624" transform="translate(59.432 15.859)">
                <path id="Path_3069" d="M296.672 317.227c5.9 0 10.68 4.114 10.68 9.189a8.776 8.776 0 0 1-4.05 7.2l3.637 7.36-10.267-5.375c-5.9 0-10.68-4.114-10.68-9.189s4.782-9.185 10.68-9.185z" class="cls-10" data-name="Path 3069" transform="translate(-285.992 -317.227)"/>
                <g id="Group_623" data-name="Group 623" transform="translate(3.526 7.751)">
                    <circle id="Ellipse_161" cx="1.354" cy="1.354" r="1.354" class="cls-16" data-name="Ellipse 161"/>
                    <circle id="Ellipse_162" cx="1.354" cy="1.354" r="1.354" class="cls-16" data-name="Ellipse 162" transform="translate(5.961)"/>
                    <circle id="Ellipse_163" cx="1.354" cy="1.354" r="1.354" class="cls-16" data-name="Ellipse 163" transform="translate(12.031)"/>
                </g>
            </g>
        </g>
    </g>
</svg>
