<svg xmlns="http://www.w3.org/2000/svg" width="118.249" height="137.844" viewBox="0 0 118.249 137.844">
    <defs>
        <style>
            .cls-1{fill:#ccc;opacity:.4}.cls-2{fill:#ebd619}.cls-3{fill:#010202}.cls-4{fill:#f9e026}.cls-5{fill:#fced97}.cls-6{fill:#c9b314}.cls-7{fill:#dda37c}.cls-8{fill:#f4bc8f}.cls-9{fill:#333}.cls-10,.cls-15{fill:#eb9d68}.cls-11{fill:#999}.cls-12{fill:#4e4d4d}.cls-13{fill:#f5bc8e}.cls-14{fill:#fff}.cls-15{stroke:#eb9d68;stroke-miterlimit:10;stroke-width:.42px}.cls-16{fill:#ebd615}
        </style>
    </defs>
    <g id="Illustration" transform="translate(4)">
        <ellipse id="Ellipse_193" cx="59.125" cy="12.212" class="cls-1" data-name="Ellipse 193" rx="59.125" ry="12.212" transform="translate(-4 113.419)"/>
        <g id="Group_557" data-name="Group 557" transform="translate(3.964 30.741)">
            <ellipse id="Ellipse_148" cx="44.329" cy="37.95" class="cls-2" data-name="Ellipse 148" rx="44.329" ry="37.95" transform="translate(10.136 5.586)"/>
            <path id="Path_2842" d="M319.355 347.838c1.327-10.572 8.192-12.939 8.192-12.939l3.2 16.728s-12.719 6.783-11.392-3.789z" class="cls-2" data-name="Path 2842" transform="translate(-250.825 -334.899)"/>
            <path id="Path_2843" d="M368.934 407.5h11.7c3.74 4.112 3.35 10.1 2.448 14.21a6.112 6.112 0 0 1-5.753 4.773l-11.067.415z" class="cls-2" data-name="Path 2843" transform="translate(-277.593 -376.244)"/>
            <path id="Path_2844" d="M231.378 504.278v9.313a1.725 1.725 0 0 0 1.725 1.725h8.048a1.725 1.725 0 0 0 1.725-1.725v-10.233z" class="cls-2" data-name="Path 2844" transform="translate(-200.775 -430.84)"/>
            <path id="Path_2845" d="M316.564 504.278v9.313a1.725 1.725 0 0 0 1.724 1.725h8.049a1.725 1.725 0 0 0 1.724-1.725v-10.233z" class="cls-2" data-name="Path 2845" transform="translate(-249.29 -430.84)"/>
            <g id="Group_556" data-name="Group 556" transform="translate(0 19.942)">
                <path id="Path_2846" d="M162.693 383.706a6.652 6.652 0 0 0 6.411 6.618c1.794 2.8 5.507 3.68 8.572 2.751a7.411 7.411 0 0 0 3.916-2.7c.795-1.138 1.156-2.746.084-3.818-.158-.158-.173.132-.073.232 1.477 1.479-.325 3.748-1.556 4.7a8 8 0 0 1-3.619 1.539 7.312 7.312 0 0 1-6.892-2.431q-.1-.13-.2-.267a6.415 6.415 0 0 0 1.375-.174c1.405-.335 2.98-1.246 3.358-2.752a2.557 2.557 0 0 0-1.54-2.9 2.9 2.9 0 0 0-3.815 1.5 4.264 4.264 0 0 0 .2 4 6.185 6.185 0 0 1-5.982-6.143c-.004-.128-.241-.352-.239-.155zm6.447 6.3a3.886 3.886 0 0 1 .021-4.166 2.7 2.7 0 0 1 3.652-.911c1.725 1.023 1.107 3-.235 4a5.847 5.847 0 0 1-3.438 1.077z" class="cls-2" data-name="Path 2846" transform="translate(-161.658 -382.593)"/>
                <path id="Path_2847" d="M173.905 393.1a8.432 8.432 0 0 1-6.73-3.136 7.725 7.725 0 0 1-6.886-7.61 1.085 1.085 0 0 1 1.068-1.124h.013a1.3 1.3 0 0 1 1.226 1.251 5.163 5.163 0 0 0 3.385 4.819 4.994 4.994 0 0 1 .441-3.131 3.935 3.935 0 0 1 5.169-1.981 3.605 3.605 0 0 1 2.115 4.1 5.126 5.126 0 0 1-3.589 3.357 6.585 6.585 0 0 0 4.781.994 6.945 6.945 0 0 0 3.149-1.337 4.351 4.351 0 0 0 1.706-2.495.775.775 0 0 0-.25-.652 1.307 1.307 0 0 1-.325-1.227 1.086 1.086 0 0 1 .771-.781 1.125 1.125 0 0 1 1.091.313c1.473 1.474 1.077 3.645.032 5.142a8.475 8.475 0 0 1-4.465 3.1 9.327 9.327 0 0 1-2.702.398zm-3.8-8.88a1.825 1.825 0 0 0-1.456.838 2.707 2.707 0 0 0-.242 2.508 4.562 4.562 0 0 0 2.184-.826 2 2 0 0 0 .873-1.518.914.914 0 0 0-.546-.767 1.58 1.58 0 0 0-.818-.239zm10.863.467zm-18.608-2.358z" class="cls-2" data-name="Path 2847" transform="translate(-160.289 -381.224)"/>
            </g>
        </g>
        <ellipse id="Ellipse_149" cx="1.679" cy="1.679" class="cls-3" data-name="Ellipse 149" rx="1.679" ry="1.679" transform="translate(85.088 62.552)"/>
        <path id="Path_2848" d="M189.185 397.619a82.829 82.829 0 0 0 9.148 3.691c2.713.2 5.438.262 8.16.2a88.607 88.607 0 0 0 17.7-3 49.146 49.146 0 0 0 7.638-3.316 66.513 66.513 0 0 0 9.127-7.947 52.168 52.168 0 0 0 5.461-7.543 35.99 35.99 0 0 0 1.652-4.517 31.036 31.036 0 0 0 .291-3.4 32.43 32.43 0 0 0-.652-3.645 41.419 41.419 0 0 0-2.615-5.526 16.2 16.2 0 0 1-3.426-7.463q-.1-2.071-.195-4.142a12.467 12.467 0 0 1 .133-1.358 51.183 51.183 0 0 0-13.444-1.779c-24.482 0-44.329 16.991-44.329 37.951a32.875 32.875 0 0 0 1.366 9.375q1.949 1.277 3.985 2.419z" class="cls-4" data-name="Path 2848" transform="translate(-169.735 -311.548)"/>
        <path id="Path_2849" d="M278.474 355.729c-14.29-2.408-23.911 1.3-23.911 1.3l.845 1.841a44.476 44.476 0 0 1 23-1.012z" class="cls-5" data-name="Path 2849" transform="translate(-210.016 -315.558)"/>
        <g id="Group_570" data-name="Group 570" transform="translate(0 49.311)">
            <g id="Group_569" data-name="Group 569">
                <g id="Group_558" data-name="Group 558">
                    <path id="Path_2850" d="M152.62 454.748l27.022-76.709H178.1l-27.022 76.709z" class="cls-3" data-name="Path 2850" transform="translate(-151.082 -378.039)"/>
                </g>
                <g id="Group_559" data-name="Group 559" transform="translate(13.972)">
                    <path id="Path_2851" d="M185.077 454.748l27.023-76.709h-1.54l-27.022 76.709z" class="cls-3" data-name="Path 2851" transform="translate(-183.538 -378.039)"/>
                </g>
                <g id="Group_560" data-name="Group 560" transform="translate(20.021 19.913)">
                    <path id="Path_2852" d="M197.591 424.3v1.144l14.478-.007.247-1.144z" class="cls-3" data-name="Path 2852" transform="translate(-197.591 -424.296)"/>
                </g>
                <g id="Group_561" data-name="Group 561" transform="translate(23.014 12.48)">
                    <path id="Path_2853" d="M204.544 407.038v1.144l14.478-.007.247-1.144z" class="cls-3" data-name="Path 2853" transform="translate(-204.544 -407.03)"/>
                </g>
                <g id="Group_562" data-name="Group 562" transform="translate(25.489 5.048)">
                    <path id="Path_2854" d="M210.293 389.772v1.144l14.478-.007.247-1.144z" class="cls-3" data-name="Path 2854" transform="translate(-210.293 -389.764)"/>
                </g>
                <g id="Group_563" data-name="Group 563" transform="translate(17.384 27.441)">
                    <path id="Path_2855" d="M191.465 441.792v1.144l14.478-.007.247-1.144z" class="cls-3" data-name="Path 2855" transform="translate(-191.465 -441.784)"/>
                </g>
                <g id="Group_564" data-name="Group 564" transform="translate(14.909 34.969)">
                    <path id="Path_2856" d="M185.716 459.279v1.144l14.478-.007.247-1.144z" class="cls-3" data-name="Path 2856" transform="translate(-185.716 -459.272)"/>
                </g>
                <g id="Group_565" data-name="Group 565" transform="translate(11.764 42.791)">
                    <path id="Path_2857" d="M178.994 477.448l-.585 1.144 14.478-.007.247-1.144z" class="cls-3" data-name="Path 2857" transform="translate(-178.409 -477.441)"/>
                </g>
                <g id="Group_566" data-name="Group 566" transform="translate(9.05 50.612)">
                    <path id="Path_2858" d="M172.689 495.617l-.585 1.144 14.478-.007.247-1.144z" class="cls-3" data-name="Path 2858" transform="translate(-172.104 -495.61)"/>
                </g>
                <g id="Group_567" data-name="Group 567" transform="translate(6.508 58.259)">
                    <path id="Path_2859" d="M166.784 513.381l-.585 1.144 14.478-.008.247-1.144z" class="cls-3" data-name="Path 2859" transform="translate(-166.199 -513.374)"/>
                </g>
                <g id="Group_568" data-name="Group 568" transform="translate(4.401 66.073)">
                    <path id="Path_2860" d="M161.891 531.533l-.585 1.144 14.478-.007.247-1.144z" class="cls-3" data-name="Path 2860" transform="translate(-161.306 -531.526)"/>
                </g>
            </g>
        </g>
        <g id="Group_575" data-name="Group 575" transform="translate(42.902 15.529)">
            <ellipse id="Ellipse_150" cx="12.002" cy="12.002" class="cls-4" data-name="Ellipse 150" rx="12.002" ry="12.002" transform="rotate(-4.055 23.968 .849)"/>
            <g id="Group_572" data-name="Group 572" transform="translate(7.768 3.725)">
                <g id="Group_571" data-name="Group 571">
                    <path id="Path_2861" d="M272.951 326.494v-2.115a9.211 9.211 0 0 1-4.165-1.113l.786-1.625a7.887 7.887 0 0 0 3.787.957c1.933 0 3.239-.78 3.239-2.049 0-1.225-1.061-1.981-3.076-2.65-2.777-.891-4.491-1.915-4.491-3.851 0-1.848 1.606-3.251 4.11-3.585v-2.248h1.688v2.16a8.511 8.511 0 0 1 3.539.779l-.814 1.736a7.441 7.441 0 0 0-3.3-.624c-2.1 0-2.886.625-2.886 1.515 0 1.158 1.007 1.737 3.375 2.538 2.8.935 4.219 2.093 4.219 4.074 0 1.759-1.5 3.539-4.3 3.918v2.182z" class="cls-6" data-name="Path 2861" transform="translate(-268.786 -308.215)"/>
                </g>
                <path id="Rectangle_155" d="M0 0h1.963v18.279H0z" class="cls-6" data-name="Rectangle 155" transform="translate(4.099)"/>
            </g>
            <g id="Group_574" data-name="Group 574" transform="translate(.34 .34)">
                <g id="Group_573" data-name="Group 573">
                    <path id="Path_2862" d="M264.013 325.314a12.48 12.48 0 1 1 12.48-12.48 12.495 12.495 0 0 1-12.48 12.48zm0-24a11.524 11.524 0 1 0 11.524 11.524 11.537 11.537 0 0 0-11.524-11.529z" class="cls-2" data-name="Path 2862" transform="translate(-251.532 -300.353)"/>
                </g>
            </g>
        </g>
        <g id="Group_581" data-name="Group 581" transform="translate(25.94)">
            <g id="Group_577" data-name="Group 577" transform="translate(9.426 12.121)">
                <path id="Path_2863" d="M238.781 297.217l-1.113-3.87a1.326 1.326 0 0 1-.418.053 1.225 1.225 0 0 1-1.105-1.118 1.126 1.126 0 0 1-.419-.636l-2.492 1.172s1.148 4.292 2.775 5.743 6.893 5.46 6.893 5.46l.986-.391z" class="cls-7" data-name="Path 2863" transform="translate(-233.234 -291.646)"/>
                <g id="Group_576" data-name="Group 576" transform="translate(9.668 11.644)">
                    <path id="Path_2864" d="M256.971 319.2a2.039 2.039 0 0 0 .946.626c.6.242 1.985.383 1.547.911-.686.133-1.475.372-1.475.372a2.256 2.256 0 0 1-1.372-.632l-.925-1.055s.1-.673.1-.706l.295-.025a3.314 3.314 0 0 0 .884.509z" class="cls-7" data-name="Path 2864" transform="translate(-255.693 -318.694)"/>
                    <path id="Path_2865" d="M257.366 319.885a.521.521 0 0 0 .045.095 2.993 2.993 0 0 0-.271.034c-.323-.091-.65-.173-.974-.261.077-.179.186-.43.19-.449l2.24.155s.1.272-.355.39a2.231 2.231 0 0 1-.875.036z" class="cls-7" data-name="Path 2865" transform="translate(-255.962 -319.041)"/>
                </g>
            </g>
            <g id="Group_578" data-name="Group 578" transform="translate(7.95)">
                <path id="Path_2866" d="M232.757 275.845l-.75 1.664-2.2-1.028 1.9-2.734z" class="cls-8" data-name="Path 2866" transform="translate(-229.806 -269.331)"/>
                <path id="Path_2867" d="M236.624 268.3s-.484 4.309-1.466 4.726-2.138-1.042-2.138-1.042l-1.1-2.553 3.5-1.506z" class="cls-8" data-name="Path 2867" transform="translate(-231.009 -266.015)"/>
                <path id="Path_2868" d="M238.1 264.919s-.747 1.495-2.907.825c-.609.013-.937.625-1.109 1.17-.2.631-.266.148-.768.578l-.879 1.26s-2.019-3.793.7-4.938 4.963 1.105 4.963 1.105z" class="cls-9" data-name="Path 2868" transform="translate(-230.895 -263.489)"/>
                <path id="Path_2869" d="M235.5 271.246a.542.542 0 0 1 .573.353c.11.251.031.5-.176.553a.542.542 0 0 1-.573-.354c-.109-.249-.031-.498.176-.552z" class="cls-8" data-name="Path 2869" transform="translate(-232.921 -267.901)"/>
                <path id="Path_2870" d="M238.508 275.579c.373.242.857.392 1.09.165" class="cls-10" data-name="Path 2870" transform="translate(-234.762 -270.375)"/>
                <ellipse id="Ellipse_151" cx=".117" cy=".128" data-name="Ellipse 151" rx=".117" ry=".128" transform="rotate(-64.997 4.95 -1.257)"/>
                <ellipse id="Ellipse_152" cx=".117" cy=".121" data-name="Ellipse 152" rx=".117" ry=".121" transform="rotate(-64.98 5.603 -1.957)"/>
            </g>
            <path id="Path_2871" d="M222.8 279.261c-5.43 3.217-3.36 16.508-3.36 16.508h8.26s.1-3.476.2-7.147c.083-2.78.345-5.673-.4-7.254-1.04-2.179-3.352-2.906-4.7-2.107z" class="cls-11" data-name="Path 2871" transform="translate(-215.732 -272.292)"/>
            <path id="Path_2872" d="M234.343 297.242s1.23 4.27 2.885 5.688 6.412 5.243 6.412 5.243l1.563-.327-5.23-6.313-1.894-6.138z" class="cls-8" data-name="Path 2872" transform="translate(-224.44 -281.66)"/>
            <path id="Path_2873" d="M232.447 291.479l4.54-1.847-2.273-5.061-3 1.559z" class="cls-12" data-name="Path 2873" transform="translate(-222.945 -275.496)"/>
            <g id="Group_579" data-name="Group 579" transform="translate(0 51.066)">
                <path id="Path_2874" d="M213.229 385.214a7.3 7.3 0 0 0 3 1.377c.458.117.953-.039.953.717h-2.527l-2.1-.363v.363h-1.135s-.316-1.856.347-2.094z" class="cls-3" data-name="Path 2874" transform="translate(-211.339 -383.88)"/>
                <path id="Path_2875" d="M213.564 382.116l.223 1.334a1.285 1.285 0 0 1-1.391.047l-.078-.047.113-1.334z" class="cls-8" data-name="Path 2875" transform="translate(-211.897 -382.116)"/>
            </g>
            <path id="Path_2876" d="M215.3 318.025s-.811 2.778-.975 9.565a9.627 9.627 0 0 1-1 3.946c-2.373 4.912-1.3 14.413-1.3 14.413h1.639l6.554-23.343-2.307-4.582z" class="cls-3" data-name="Path 2876" transform="translate(-211.588 -294.548)"/>
            <g id="Group_580" data-name="Group 580" transform="translate(8.915 51.869)">
                <path id="Path_2877" d="M233.94 387.078a7.293 7.293 0 0 0 3 1.378c.458.117.953-.039.953.717h-2.527l-2.1-.363v.363h-1.135s-.316-1.856.347-2.094z" class="cls-12" data-name="Path 2877" transform="translate(-232.049 -385.745)"/>
                <path id="Path_2878" d="M234.275 383.981l.223 1.333a1.284 1.284 0 0 1-1.39.047l-.078-.047.113-1.333z" class="cls-8" data-name="Path 2878" transform="translate(-232.608 -383.981)"/>
            </g>
            <path id="Path_2879" d="M255.941 324.52l1.241 1.831c.559.7 2 .416 2.9-.038a.2.2 0 0 0 .024-.345 28.209 28.209 0 0 0-2.861-1.87z" class="cls-8" data-name="Path 2879" transform="translate(-236.741 -298.008)"/>
            <path id="Path_2880" d="M229.5 318.025l-.811 28.794h-1.727s-2.432-8.008-1.9-13.533a8.941 8.941 0 0 0-.656-4.405 24.941 24.941 0 0 1-2.159-10.856z" class="cls-12" data-name="Path 2880" transform="translate(-217.54 -294.548)"/>
        </g>
        <g id="Group_588" data-name="Group 588" transform="translate(81.628 73.978)">
            <path id="Path_2881" d="M347.653 462.361l-2.717 5.118 2.994-.144.21-5.138z" class="cls-13" data-name="Path 2881" transform="translate(-343.113 -450.634)"/>
            <path id="Path_2882" d="M356.463 457.306h-2.51l-1.04 16.223h4.5z" class="cls-14" data-name="Path 2882" transform="translate(-347.657 -447.847)"/>
            <g id="Group_583" data-name="Group 583" transform="translate(8.046 56.462)">
                <path id="Path_2883" d="M364.762 567.937a1.313 1.313 0 0 1 .506 1.109c-.114.621-.275 2.077-.275 2.077h-.638l.019-1.358c0-.089-1.368 1.358-1.6 1.358H359.4s-.224-.916 1.758-1.21a7.311 7.311 0 0 0 3.604-1.976z" class="cls-12" data-name="Path 2883" transform="translate(-359.393 -567.318)"/>
                <g id="Group_582" data-name="Group 582" transform="translate(1.249)">
                    <path id="Path_2884" d="M364.951 566.5l-.458 1.191a1.53 1.53 0 0 1-.623.791 5.985 5.985 0 0 1-1.576.715c.917.783 2.377-.034 3.212-.613a2.043 2.043 0 0 0 .816-1.182l.191-.9z" class="cls-13" data-name="Path 2884" transform="translate(-362.294 -566.498)"/>
                </g>
            </g>
            <g id="Group_585" data-name="Group 585" transform="translate(1.616 56.462)">
                <path id="Path_2885" d="M349.826 567.937a1.314 1.314 0 0 1 .507 1.109c-.114.621-.275 2.077-.275 2.077h-.638l.02-1.358c0-.089-1.368 1.358-1.6 1.358h-3.375s-.224-.916 1.758-1.21a7.311 7.311 0 0 0 3.603-1.976z" class="cls-3" data-name="Path 2885" transform="translate(-344.457 -567.318)"/>
                <g id="Group_584" data-name="Group 584" transform="translate(1.249)">
                    <path id="Path_2886" d="M350.015 566.5l-.458 1.191a1.53 1.53 0 0 1-.623.791 5.989 5.989 0 0 1-1.576.715c.917.783 2.377-.034 3.211-.613a2.044 2.044 0 0 0 .816-1.182l.191-.9z" class="cls-13" data-name="Path 2886" transform="translate(-347.359 -566.498)"/>
                </g>
            </g>
            <path id="Path_2887" d="M356.324 494.988s.422 2.425-2 14.342c1.963 6.211-1.181 16.6-1.181 16.6h-2.291l-1.56-30.946z" class="cls-3" data-name="Path 2887" transform="translate(-345.593 -469.31)"/>
            <path id="Path_2888" d="M351.323 457.311l-.814 19.683-2.7-1.155a28.95 28.95 0 0 0 1.1-8.828c.413-3.712-1.694-1.757.887-8.9a2.757 2.757 0 0 1 1.527-.8z" class="cls-12" data-name="Path 2888" transform="translate(-344.752 -447.852)"/>
            <path id="Path_2889" d="M355.151 448.878l.316 1.659a1.056 1.056 0 0 0 1.6.7l1.107-.694-1.977-4.467z" class="cls-13" data-name="Path 2889" transform="translate(-348.931 -441.452)"/>
            <path id="Path_2890" d="M361.446 494.988s3 2.425.577 14.342c1.963 6.211.231 16.6.231 16.6H360.2l-5.787-30.946z" class="cls-12" data-name="Path 2890" transform="translate(-348.51 -469.31)"/>
            <path id="Path_2891" d="M360.06 453.436a11.766 11.766 0 0 1 3.322 2.7c.75 1.212 1.01 3.97 1.082 6.426.1 3.372 1.728 12.23 1.728 12.23H359.4l-.17-19.283z" class="cls-12" data-name="Path 2891" transform="translate(-351.254 -445.645)"/>
            <path id="Path_2892" d="M348.069 437.786c1.537-.39 3.014 1.186 3.014 1.186l1.156 6.225 1.778-2.74s.1-3.722-1.617-6.187c-1.23-1.493-3.592-1.064-4.786.387a3.668 3.668 0 0 0-.646 2.578c.075 1.2.417 8.117.417 8.117l3.52-2.607a16.377 16.377 0 0 0-.421-1.981c-.584-2.2-3.446-4.716-2.415-4.978z" class="cls-9" data-name="Path 2892" transform="translate(-344.264 -435.338)"/>
            <path id="Path_2893" d="M356.656 443.522a.555.555 0 0 0-.656.342.478.478 0 0 0 .166.676.556.556 0 0 0 .656-.342.478.478 0 0 0-.166-.676z" class="cls-13" data-name="Path 2893" transform="translate(-349.377 -439.984)"/>
            <g id="Group_586" data-name="Group 586" transform="translate(3.06 1.854)">
                <path id="Path_2894" d="M350.382 445.509a1.224 1.224 0 0 1-.751.1c-1.337-.968-1.819-4.837-1.819-4.837l1.059-1.124 2.107.463 1.038 2.3a2.12 2.12 0 0 1-.086 1.913 3.4 3.4 0 0 1-1.548 1.185z" class="cls-13" data-name="Path 2894" transform="translate(-347.812 -439.645)"/>
            </g>
            <path id="Path_2895" d="M348.723 439.034c.109 1.17 3.366 1.266 3.366 1.266l.17-1.584-1.9-1.045-1.5.9a1 1 0 0 0-.136.463z" class="cls-9" data-name="Path 2895" transform="translate(-345.27 -436.667)"/>
            <path id="Path_2896" d="M348.106 441.11a2.232 2.232 0 0 1-.333 1.194l-.259-.468.007-.405.256-.316s.223-.44.329-.005z" class="cls-9" data-name="Path 2896" transform="translate(-344.582 -438.516)"/>
            <path id="Path_2897" d="M356.823 459.678c3.287.384 1.734 8.863 1.028 12.345a1.474 1.474 0 0 1-1.884 1.117c-2.86-.9-7.038-4.647-7.038-4.647l.663-.834 5.55 1.3s-2.13-9.725 1.681-9.281z" class="cls-13" data-name="Path 2897" transform="translate(-345.388 -449.192)"/>
            <path id="Path_2898" d="M345.562 473.258l1.073 6.644a.316.316 0 0 1-.312.367h-4.249a.316.316 0 0 1-.313-.267l-1.054-6.643a.317.317 0 0 1 .313-.366h4.23a.317.317 0 0 1 .312.265z" class="cls-3" data-name="Path 2898" transform="translate(-340.703 -456.783)"/>
            <g id="Group_587" data-name="Group 587" transform="translate(.125 17.299)">
                <path id="Path_2899" d="M341.011 477.642a2.916 2.916 0 0 1 .074-.863c.1-.629.075-1.613.717-1.122a3.228 3.228 0 0 1 .677 1.57 1.879 1.879 0 0 1-.4 1.4l-.441.961a2.779 2.779 0 0 1-.627-1.946z" class="cls-15" data-name="Path 2899" transform="translate(-340.994 -475.524)"/>
            </g>
            <path id="Path_2900" d="M346.635 478.56a.324.324 0 1 1-.325-.325.324.324 0 0 1 .325.325z" class="cls-16" data-name="Path 2900" transform="translate(-343.712 -459.769)"/>
            <path id="Path_2901" d="M351.205 449.926c.2.52.893.056 1.343-.269" class="cls-10" data-name="Path 2901" transform="translate(-346.684 -443.493)"/>
            <ellipse id="Ellipse_153" cx=".159" cy=".145" data-name="Ellipse 153" rx=".159" ry=".145" transform="rotate(-14.76 20.428 -18.657)"/>
            <ellipse id="Ellipse_154" cx=".15" cy=".145" data-name="Ellipse 154" rx=".15" ry=".145" transform="rotate(-14.698 20.78 -13.7)"/>
        </g>
    </g>
</svg>
